<svg width="26" height="32" viewBox="0 0 26 32" fill="none" xmlns="http://www.w3.org/2000/svg">
<path fill-rule="evenodd" clip-rule="evenodd" d="M1.21951 31.9331C1.01129 32.0601 0.740088 32.0012 0.603204 31.7994L0.0789005 31.0264C-0.057983 30.8245 -0.0120187 30.5512 0.18004 30.4009C1.9069 29.0497 3.32636 27.5267 4.44268 25.8955C8.59931 19.8217 8.59931 12.1783 4.44268 6.10452C3.32636 4.47331 1.9069 2.95031 0.180041 1.59909C-0.0120176 1.44881 -0.057982 1.17548 0.0789015 0.97365L0.603206 0.200602C0.740089 -0.00122233 1.01129 -0.0600739 1.21952 0.0668597L24.509 14.264C25.8088 15.0564 25.8088 16.9436 24.509 17.736L1.21951 31.9331Z" fill="url(#paint0_linear_4095_35)"/>
<defs>
<linearGradient id="paint0_linear_4095_35" x1="28.4583" y1="16.2834" x2="-9.3721" y2="16.2834" gradientUnits="userSpaceOnUse">
<stop stop-color="#3568DD"/>
<stop offset="1" stop-color="#3568DD" stop-opacity="0.66"/>
</linearGradient>
</defs>
</svg>
