<svg width="215" height="269" viewBox="0 0 215 269" fill="none" xmlns="http://www.w3.org/2000/svg">
<circle cx="108.25" cy="136.357" r="100.357" fill="url(#paint0_radial_1610_8698)"/>
<path opacity="0.8" d="M8.25001 136.5C8.25002 73.3368 52.763 22.5 107.25 22.5C161.737 22.5 206.25 73.3368 206.25 136.5C206.25 199.663 161.737 250.5 107.25 250.5C52.763 250.5 8.25 199.663 8.25001 136.5Z" stroke="url(#paint1_linear_1610_8698)" stroke-width="3"/>
<path opacity="0.6" d="M213.25 165C213.25 221.569 166.057 267.5 107.75 267.5C49.4435 267.5 2.25 221.569 2.25 165C2.25 108.431 49.4435 62.5 107.75 62.5C166.057 62.5 213.25 108.431 213.25 165Z" stroke="url(#paint2_linear_1610_8698)" stroke-width="3"/>
<path opacity="0.6" d="M213.25 104C213.25 160.569 166.057 206.5 107.75 206.5C49.4435 206.5 2.25 160.569 2.25 104C2.25 47.4307 49.4435 1.5 107.75 1.5C166.057 1.5 213.25 47.4307 213.25 104Z" stroke="url(#paint3_linear_1610_8698)" stroke-width="3"/>
<path fill-rule="evenodd" clip-rule="evenodd" d="M108.207 169.448C92.6924 169.237 78.7834 158.956 74.2422 143.795C72.9946 143.292 72.0177 142.189 71.7355 140.77C71.2908 138.533 72.7431 136.36 74.9785 135.915C77.2135 135.47 79.3864 136.923 79.8306 139.159C80.0837 140.435 79.7213 141.688 78.948 142.614C82.9383 155.593 94.8821 164.385 108.207 164.597C110.041 164.565 111.898 164.369 113.761 163.998C126.918 161.38 136.48 150.831 138.472 138.308C138.513 138.045 138.551 137.781 138.587 137.517C139.041 134.061 143.81 134.699 143.455 137.687C141.658 152.759 130.392 165.634 114.706 168.755C112.526 169.189 110.354 169.414 108.207 169.448ZM141.827 155.77C146.26 153.424 150.592 150.602 154.781 147.294C159.253 143.763 162.872 140.453 166.658 136.192C169.005 133.551 169.005 132.865 166.658 130.223C162.872 125.963 159.253 122.653 154.781 119.122C150.462 115.712 145.992 112.817 141.415 110.429C139.155 107.1 136.415 104.123 133.299 101.594C141.789 104.606 150.038 109.172 157.797 115.298C162.222 118.793 166.072 122.411 169.681 126.377C175.974 133.293 175.974 133.122 169.681 140.037C166.071 144.003 162.222 147.621 157.797 151.116C150.3 157.035 142.346 161.498 134.159 164.51C137.109 161.979 139.694 159.036 141.827 155.77ZM74.5875 155.77C70.1551 153.424 65.8227 150.602 61.634 147.294C57.1621 143.763 53.543 140.453 49.7564 136.192C47.4095 133.551 47.4095 132.865 49.7564 130.223C53.5425 125.963 57.1615 122.653 61.634 119.122C65.9523 115.712 70.4227 112.817 74.9994 110.429C77.2598 107.1 79.9993 104.123 83.1158 101.594C74.6255 104.606 66.3762 109.172 58.6185 115.298C54.1924 118.793 50.3432 122.411 46.7341 126.377C40.4412 133.293 40.4412 133.122 46.7341 140.037C50.3437 144.003 54.1924 147.621 58.6185 151.116C66.1143 157.035 74.0688 161.498 82.2561 164.51C79.3052 161.979 76.7198 159.036 74.5875 155.77ZM108.207 149.968C100.084 149.968 100.423 150.566 101.138 146.871L103.711 133.574C101.131 131.979 99.4118 129.123 99.4118 125.866C99.4118 120.951 103.327 116.951 108.207 116.816C113.088 116.951 117.003 120.951 117.003 125.866C117.003 129.123 115.283 131.979 112.703 133.574L115.276 146.871C115.992 150.566 116.33 149.968 108.207 149.968ZM108.207 108.305C122.065 108.305 133.299 119.545 133.299 133.41C133.299 147.275 122.065 158.514 108.207 158.514C94.3488 158.514 83.1148 147.275 83.1148 133.41C83.1148 119.545 94.3494 108.305 108.207 108.305ZM108.207 97.3714C123.722 97.5829 137.63 107.864 142.172 123.024C143.42 123.528 144.396 124.63 144.678 126.05C145.123 128.286 143.671 130.46 141.435 130.904C139.2 131.349 137.027 129.897 136.583 127.66C136.33 126.385 136.693 125.131 137.465 124.205C133.475 111.227 121.531 102.434 108.207 102.222C106.373 102.255 104.516 102.45 102.653 102.821C89.4952 105.439 79.9337 115.988 77.942 128.512C77.8998 128.774 77.8618 129.039 77.8264 129.303C77.3718 132.759 72.6035 132.121 72.9581 129.132C74.7551 114.061 86.0209 101.186 101.707 98.0648C103.888 97.6309 106.061 97.4053 108.207 97.3714Z" fill="white"/>
<defs>
<radialGradient id="paint0_radial_1610_8698" cx="0" cy="0" r="1" gradientUnits="userSpaceOnUse" gradientTransform="translate(108.25 136.357) rotate(90) scale(229)">
<stop stop-color="#1D1D1D"/>
<stop offset="1"/>
</radialGradient>
<linearGradient id="paint1_linear_1610_8698" x1="107.25" y1="252" x2="107.25" y2="21" gradientUnits="userSpaceOnUse">
<stop stop-color="#0E0E0E"/>
<stop offset="0.468006" stop-color="#1D1D1D" stop-opacity="0"/>
<stop offset="1" stop-color="#0E0E0E"/>
</linearGradient>
<linearGradient id="paint2_linear_1610_8698" x1="107.75" y1="269" x2="107.75" y2="139.634" gradientUnits="userSpaceOnUse">
<stop stop-color="#0E0E0E"/>
<stop offset="1" stop-color="#1D1D1D" stop-opacity="0"/>
</linearGradient>
<linearGradient id="paint3_linear_1610_8698" x1="107.75" y1="0" x2="107.75" y2="127.675" gradientUnits="userSpaceOnUse">
<stop stop-color="#0E0E0E"/>
<stop offset="1" stop-color="#1D1D1D" stop-opacity="0"/>
</linearGradient>
</defs>
</svg>
