<svg width="214" height="269" viewBox="0 0 214 269" fill="none" xmlns="http://www.w3.org/2000/svg">
<circle cx="107.5" cy="136.357" r="100.357" fill="url(#paint0_radial_609_1232)"/>
<path opacity="0.8" d="M7.50001 136.5C7.50002 73.3368 52.013 22.5 106.5 22.5C160.987 22.5 205.5 73.3368 205.5 136.5C205.5 199.663 160.987 250.5 106.5 250.5C52.013 250.5 7.5 199.663 7.50001 136.5Z" stroke="url(#paint1_linear_609_1232)" stroke-width="3"/>
<path opacity="0.6" d="M212.5 165C212.5 221.569 165.307 267.5 107 267.5C48.6935 267.5 1.5 221.569 1.5 165C1.5 108.431 48.6935 62.5 107 62.5C165.307 62.5 212.5 108.431 212.5 165Z" stroke="url(#paint2_linear_609_1232)" stroke-width="3"/>
<path opacity="0.6" d="M212.5 104C212.5 160.569 165.307 206.5 107 206.5C48.6935 206.5 1.5 160.569 1.5 104C1.5 47.4307 48.6935 1.5 107 1.5C165.307 1.5 212.5 47.4307 212.5 104Z" stroke="url(#paint3_linear_609_1232)" stroke-width="3"/>
<path fill-rule="evenodd" clip-rule="evenodd" d="M107.457 169.448C91.9424 169.237 78.0334 158.956 73.4922 143.795C72.2445 143.292 71.2677 142.189 70.9854 140.77C70.5407 138.533 71.993 136.36 74.2285 135.915C76.4634 135.47 78.6364 136.923 79.0806 139.159C79.3336 140.435 78.9712 141.688 78.1979 142.614C82.1882 155.593 94.132 164.385 107.457 164.597C109.291 164.565 111.148 164.369 113.011 163.998C126.168 161.38 135.73 150.831 137.722 138.308C137.763 138.045 137.801 137.781 137.837 137.517C138.291 134.061 143.06 134.699 142.705 137.687C140.908 152.759 129.642 165.634 113.956 168.755C111.776 169.189 109.604 169.414 107.457 169.448ZM141.077 155.77C145.51 153.424 149.842 150.602 154.031 147.294C158.503 143.763 162.122 140.453 165.908 136.192C168.255 133.551 168.255 132.865 165.908 130.223C162.122 125.963 158.503 122.653 154.031 119.122C149.712 115.712 145.242 112.817 140.665 110.429C138.405 107.1 135.665 104.123 132.549 101.594C141.039 104.606 149.288 109.172 157.047 115.298C161.472 118.793 165.322 122.411 168.93 126.377C175.224 133.293 175.224 133.122 168.93 140.037C165.321 144.003 161.472 147.621 157.047 151.116C149.55 157.035 141.596 161.498 133.408 164.51C136.359 161.979 138.944 159.036 141.077 155.77ZM73.8374 155.77C69.405 153.424 65.0727 150.602 60.884 147.294C56.412 143.763 52.793 140.453 49.0063 136.192C46.6594 133.551 46.6594 132.865 49.0063 130.223C52.7925 125.963 56.4115 122.653 60.884 119.122C65.2023 115.712 69.6727 112.817 74.2493 110.429C76.5098 107.1 79.2493 104.123 82.3658 101.594C73.8754 104.606 65.6262 109.172 57.8685 115.298C53.4423 118.793 49.5932 122.411 45.9841 126.377C39.6911 133.293 39.6911 133.122 45.9841 140.037C49.5937 144.003 53.4423 147.621 57.8685 151.116C65.3643 157.035 73.3188 161.498 81.5061 164.51C78.5552 161.979 75.9698 159.036 73.8374 155.77ZM107.457 149.968C99.334 149.968 99.6725 150.566 100.388 146.871L102.961 133.574C100.381 131.979 98.6618 129.123 98.6618 125.866C98.6618 120.951 102.577 116.951 107.457 116.816C112.338 116.951 116.253 120.951 116.253 125.866C116.253 129.123 114.533 131.979 111.953 133.574L114.526 146.871C115.242 150.566 115.579 149.968 107.457 149.968ZM107.457 108.305C121.315 108.305 132.549 119.545 132.549 133.41C132.549 147.275 121.315 158.514 107.457 158.514C93.5988 158.514 82.3648 147.275 82.3648 133.41C82.3648 119.545 93.5993 108.305 107.457 108.305ZM107.457 97.3714C122.972 97.5829 136.88 107.864 141.422 123.024C142.669 123.528 143.646 124.63 143.928 126.05C144.373 128.286 142.92 130.46 140.685 130.904C138.45 131.349 136.277 129.897 135.833 127.66C135.58 126.385 135.943 125.131 136.715 124.205C132.725 111.227 120.781 102.434 107.457 102.222C105.623 102.255 103.766 102.45 101.903 102.821C88.7452 105.439 79.1837 115.988 77.1919 128.512C77.1497 128.774 77.1117 129.039 77.0763 129.303C76.6217 132.759 71.8535 132.121 72.2081 129.132C74.0051 114.061 85.2709 101.186 100.957 98.0648C103.138 97.6309 105.311 97.4053 107.457 97.3714Z" fill="white"/>
<defs>
<radialGradient id="paint0_radial_609_1232" cx="0" cy="0" r="1" gradientUnits="userSpaceOnUse" gradientTransform="translate(107.5 136.357) rotate(90) scale(229)">
<stop stop-color="#243A5D"/>
<stop offset="1" stop-color="#060B12"/>
</radialGradient>
<linearGradient id="paint1_linear_609_1232" x1="106.5" y1="252" x2="106.5" y2="21" gradientUnits="userSpaceOnUse">
<stop stop-color="#192841"/>
<stop offset="0.468006" stop-color="#192841" stop-opacity="0"/>
<stop offset="1" stop-color="#192841"/>
</linearGradient>
<linearGradient id="paint2_linear_609_1232" x1="107" y1="269" x2="107" y2="139.634" gradientUnits="userSpaceOnUse">
<stop stop-color="#192841"/>
<stop offset="1" stop-color="#22385A" stop-opacity="0"/>
</linearGradient>
<linearGradient id="paint3_linear_609_1232" x1="107" y1="0" x2="107" y2="127.675" gradientUnits="userSpaceOnUse">
<stop stop-color="#192841"/>
<stop offset="1" stop-color="#203657" stop-opacity="0"/>
</linearGradient>
</defs>
</svg>
