<svg width="102" height="62" viewBox="0 0 102 62" fill="none" xmlns="http://www.w3.org/2000/svg">
<path d="M49.3053 4.58774C50.089 3.33707 51.911 3.33707 52.6947 4.58774L57.7197 12.6066C58.7453 14.2433 60.7939 14.9134 62.5885 14.1991L74.286 9.54305C75.9451 8.8827 77.5721 10.5622 76.8595 12.1995L75.1342 16.163C74.0066 18.7537 75.8475 21.6652 78.6715 21.7573L87.1165 22.0326C89.1926 22.1003 89.8022 24.8963 87.9426 25.822L84.7342 27.4192C81.7777 28.891 81.7777 33.109 84.7342 34.5808L87.9426 36.178C89.8022 37.1037 89.1926 39.8997 87.1165 39.9674L78.6715 40.2427C75.8475 40.3348 74.0066 43.2463 75.1342 45.837L76.8595 49.8005C77.5721 51.4378 75.945 53.1173 74.286 52.457L62.5885 47.8009C60.7939 47.0866 58.7453 47.7567 57.7197 49.3934L52.6947 57.4123C51.911 58.6629 50.089 58.6629 49.3053 57.4123L44.2803 49.3934C43.2547 47.7567 41.2061 47.0866 39.4115 47.8009L27.714 52.457C26.0549 53.1173 24.4279 51.4378 25.1405 49.8005L26.8658 45.837C27.9934 43.2463 26.1525 40.3348 23.3285 40.2427L14.8835 39.9674C12.8074 39.8997 12.1978 37.1037 14.0574 36.178L17.2658 34.5808C20.2223 33.109 20.2223 28.891 17.2658 27.4192L14.0574 25.822C12.1978 24.8963 12.8074 22.1003 14.8835 22.0326L23.3285 21.7573C26.1525 21.6652 27.9934 18.7537 26.8658 16.163L25.1405 12.1995C24.4279 10.5622 26.0549 8.8827 27.714 9.54305L39.4115 14.1991C41.2061 14.9134 43.2547 14.2433 44.2803 12.6066L49.3053 4.58774Z" fill="white" stroke="#99B4D8" stroke-width="2"/>
<path d="M34.7568 36V26.2H36.3248L41.0148 32.528C41.2015 32.7707 41.3555 33.0647 41.4768 33.41C41.5982 33.7553 41.7102 34.0727 41.8128 34.362L42.0788 34.278C41.9762 33.9793 41.8735 33.6573 41.7708 33.312C41.6775 32.9667 41.6308 32.64 41.6308 32.332V26.2H43.1988V36H41.6308L36.9408 29.686C36.7542 29.4433 36.6002 29.1493 36.4788 28.804C36.3575 28.4587 36.2455 28.1413 36.1428 27.852L35.8768 27.936C35.9795 28.2347 36.0822 28.5567 36.1848 28.902C36.2875 29.2473 36.3388 29.574 36.3388 29.882V36H34.7568ZM46.3479 36V26.2H53.0399V27.656H47.8879V30.246H52.6899V31.702H47.8879V34.544H53.1099V36H46.3479ZM55.8501 26.2L57.4601 32.962C57.5068 33.1767 57.5208 33.4193 57.5021 33.69C57.4928 33.9607 57.4835 34.2127 57.4741 34.446H57.7541C57.7635 34.222 57.7635 33.9747 57.7541 33.704C57.7448 33.4333 57.7728 33.1907 57.8381 32.976L59.7981 26.2H61.5481L63.5501 32.976C63.6155 33.1907 63.6435 33.4333 63.6341 33.704C63.6248 33.9747 63.6248 34.222 63.6341 34.446H63.9141C63.9048 34.2127 63.8908 33.9607 63.8721 33.69C63.8628 33.4193 63.8815 33.1767 63.9281 32.962L65.5381 26.2H67.0781L64.6421 36H62.8081L60.9041 28.79C60.8388 28.5473 60.8061 28.272 60.8061 27.964C60.8155 27.6467 60.8201 27.3573 60.8201 27.096H60.5401C60.5401 27.3573 60.5448 27.6467 60.5541 27.964C60.5635 28.272 60.5355 28.552 60.4701 28.804L58.5801 36H56.7321L54.3101 26.2H55.8501Z" fill="#99B4D8"/>
</svg>
