<svg width="99" height="54" viewBox="0 0 99 54" fill="none" xmlns="http://www.w3.org/2000/svg">
    <path fill-rule="evenodd" clip-rule="evenodd"
          d="M53.3239 28.225C59.0309 26.2758 63.1348 20.8672 63.1348 14.5C63.1348 6.49187 56.6429 0 48.6348 0C40.6267 0 34.1348 6.49187 34.1348 14.5C34.1348 21.0015 38.4138 26.5037 44.3092 28.3438C42.746 28.657 41.2132 29.1223 39.7332 29.7353C38.3082 30.3256 36.9453 31.0473 35.6617 31.8892C33.6916 28.3441 30.5598 25.5231 26.7512 23.867C25.7751 23.4426 24.7688 23.1009 23.7435 22.8429C27.3506 21.0377 29.8272 17.3081 29.8272 13C29.8272 6.92487 24.9023 2 18.8272 2C12.7521 2 7.8272 6.92487 7.8272 13C7.8272 17.3419 10.3428 21.0962 13.996 22.885C10.0561 23.9129 6.56169 26.1398 4.03805 29.239C1.4218 32.452 0 36.4171 0 40.5C0 41.0523 0.447716 41.5 1 41.5C1.55228 41.5 2 41.0523 2 40.5C2 36.8845 3.2585 33.3639 5.58893 30.5019C7.9206 27.6384 11.1933 25.5978 14.8918 24.7231C18.5909 23.8482 22.4873 24.1939 25.9537 25.7011C29.4191 27.2079 32.2436 29.7831 33.9897 32.9994C34.0011 33.0204 34.0131 33.0408 34.0257 33.0606C33.2328 33.6791 32.477 34.3468 31.763 35.0608C29.4817 37.3421 27.6721 40.0504 26.4375 43.031C25.2029 46.0117 24.5674 49.2063 24.5674 52.4325C24.5674 52.9848 25.0151 53.4325 25.5674 53.4325C26.1197 53.4325 26.5674 52.9848 26.5674 52.4325C26.5674 49.469 27.1512 46.5344 28.2853 43.7964C29.4194 41.0584 31.0817 38.5706 33.1772 36.475C35.2728 34.3795 37.7606 32.7172 40.4986 31.5831C43.2366 30.449 46.1712 29.8652 49.1347 29.8652C52.0983 29.8652 55.0329 30.449 57.7709 31.5831C60.5089 32.7172 62.9967 34.3795 65.0922 36.475C67.1878 38.5706 68.8501 41.0584 69.9842 43.7964C71.1183 46.5344 71.702 49.469 71.702 52.4325C71.702 52.9848 72.1498 53.4325 72.702 53.4325C73.2543 53.4325 73.702 52.9848 73.702 52.4325C73.702 49.2063 73.0666 46.0117 71.832 43.031C70.5974 40.0504 68.7877 37.3421 66.5065 35.0608C65.793 34.3474 65.0379 33.6802 64.2457 33.0622C65.9141 29.9559 68.5911 27.4331 71.8958 25.8904C75.365 24.2708 79.309 23.8333 83.0763 24.6546C86.8429 25.4758 90.1932 27.5029 92.585 30.3859C94.9755 33.2673 96.2693 36.8342 96.2693 40.5C96.2693 41.0523 96.717 41.5 97.2693 41.5C97.8216 41.5 98.2693 41.0523 98.2693 40.5C98.2693 36.3602 96.8076 32.3433 94.1242 29.1089C91.5709 26.0312 88.0559 23.836 84.1088 22.8429C87.7159 21.0377 90.1924 17.3081 90.1924 13C90.1924 6.92487 85.2676 2 79.1924 2C73.1173 2 68.1924 6.92487 68.1924 13C68.1924 17.3419 70.708 21.0963 74.3613 22.8851C73.2277 23.1808 72.1187 23.5791 71.0498 24.0781C67.4436 25.7616 64.4915 28.4991 62.6076 31.8891C61.324 31.0473 59.9613 30.3256 58.5362 29.7353C56.8559 29.0393 55.1076 28.5337 53.3239 28.225ZM61.1348 14.5C61.1348 21.4036 55.5384 27 48.6348 27C41.7313 27 36.1348 21.4036 36.1348 14.5C36.1348 7.59644 41.7313 2 48.6348 2C55.5384 2 61.1348 7.59644 61.1348 14.5ZM79.1924 22C84.163 22 88.1924 17.9706 88.1924 13C88.1924 8.02944 84.163 4 79.1924 4C74.2219 4 70.1924 8.02944 70.1924 13C70.1924 17.9706 74.2219 22 79.1924 22ZM18.8272 22C23.7978 22 27.8272 17.9706 27.8272 13C27.8272 8.02944 23.7978 4 18.8272 4C13.8566 4 9.8272 8.02944 9.8272 13C9.8272 17.9706 13.8566 22 18.8272 22Z"
          fill="#A2B2D8"/>
</svg>
