<svg width="148" height="48" viewBox="0 0 148 48" fill="none" xmlns="http://www.w3.org/2000/svg">
<path d="M9.50141 47.9976C9.11908 47.9976 8.74599 47.9927 8.36667 47.9841C7.58087 47.9739 6.7969 47.9055 6.0212 47.7795C5.2979 47.6549 4.59722 47.4232 3.94226 47.0919C3.29331 46.7635 2.70142 46.3327 2.18925 45.8163C1.66968 45.3059 1.2371 44.7139 0.908678 44.0639C0.576635 43.4096 0.346841 42.7083 0.227301 41.9844C0.0982091 41.2065 0.0283649 40.42 0.0183709 39.6315C0.0104152 39.3669 0 38.4858 0 38.4858V9.49829C0 9.49829 0.0110928 8.63069 0.0184336 8.37579C0.0280028 7.58861 0.097441 6.8033 0.226147 6.02665C0.345907 5.30075 0.575879 4.59741 0.908101 3.94098C1.23532 3.29137 1.66549 2.69898 2.18194 2.18678C2.6978 1.66971 3.29159 1.23677 3.94165 0.903747C4.5951 0.573578 5.29446 0.34349 6.0163 0.22119C6.79454 0.0939072 7.58123 0.0250919 8.36976 0.0153216L9.50202 0H138.46L139.606 0.0159365C140.387 0.0252213 141.167 0.0934227 141.938 0.219961C142.667 0.343794 143.373 0.575488 144.034 0.907424C145.337 1.57857 146.396 2.64038 147.065 3.94404C147.392 4.59594 147.618 5.29354 147.736 6.01317C147.867 6.79619 147.94 7.58768 147.955 8.38131C147.958 8.73668 147.958 9.11841 147.958 9.49829C147.968 9.96886 147.968 10.4167 147.968 10.8683V37.1304C147.968 37.5863 147.968 38.0311 147.958 38.4796C147.958 38.8877 147.958 39.2615 147.953 39.6462C147.939 40.4257 147.867 41.2031 147.739 41.9721C147.622 42.7012 147.393 43.408 147.061 44.0676C146.73 44.7107 146.3 45.2975 145.787 45.8065C145.274 46.3257 144.681 46.759 144.031 47.0896C143.372 47.4233 142.666 47.6559 141.938 47.7795C141.162 47.9062 140.378 47.9746 139.592 47.9841C139.225 47.9927 138.84 47.9976 138.466 47.9976L137.106 48.0001L9.50141 47.9976Z" fill="white"/>
<path d="M30.2714 23.8615C30.2855 22.7723 30.5748 21.7044 31.1124 20.7571C31.6501 19.8098 32.4186 19.0139 33.3465 18.4435C32.757 17.6016 31.9794 16.9088 31.0753 16.42C30.1712 15.9313 29.1657 15.66 28.1384 15.6279C25.9472 15.3979 23.8229 16.9391 22.7062 16.9391C21.568 16.9391 19.8488 15.6507 17.9975 15.6888C16.8 15.7275 15.633 16.0757 14.6101 16.6995C13.5872 17.3234 12.7434 18.2015 12.1608 19.2484C9.63716 23.6178 11.5196 30.0393 13.937 33.5711C15.1465 35.3006 16.5601 37.2324 18.4097 37.1639C20.2197 37.0888 20.8957 36.0098 23.0805 36.0098C25.245 36.0098 25.8792 37.1639 27.7664 37.1204C29.7086 37.0889 30.9323 35.3832 32.0994 33.6374C32.9684 32.4051 33.6371 31.0432 34.0807 29.602C32.9524 29.1247 31.9895 28.3259 31.3121 27.3051C30.6347 26.2843 30.2727 25.0866 30.2714 23.8615Z" fill="black"/>
<path d="M26.7065 13.3044C27.7655 12.0332 28.2872 10.3992 28.1609 8.74951C26.543 8.91944 25.0486 9.69267 23.9753 10.9151C23.4505 11.5123 23.0486 12.2071 22.7926 12.9598C22.5365 13.7124 22.4312 14.5081 22.4829 15.3014C23.2921 15.3098 24.0926 15.1344 24.8242 14.7884C25.5558 14.4425 26.1994 13.9351 26.7065 13.3044Z" fill="black"/>
<path d="M51.9861 32.9581H46.0464L44.62 37.1699H42.1042L47.7302 21.5873H50.344L55.97 37.1699H53.4113L51.9861 32.9581ZM46.6616 31.0145H51.3698L49.0488 24.1791H48.9838L46.6616 31.0145Z" fill="black"/>
<path d="M68.1203 31.4897C68.1203 35.0201 66.2307 37.2884 63.3791 37.2884C62.6567 37.3262 61.9383 37.1598 61.3062 36.8083C60.674 36.4567 60.1536 35.9343 59.8045 35.3007H59.7506V40.9279H57.4186V25.8086H59.6758V27.6982H59.7187C60.0838 27.0677 60.613 26.5479 61.25 26.1943C61.887 25.8406 62.608 25.6662 63.3362 25.6897C66.2196 25.6897 68.1203 27.969 68.1203 31.4897ZM65.7233 31.4897C65.7233 29.1896 64.5347 27.6774 62.721 27.6774C60.9393 27.6774 59.7408 29.2214 59.7408 31.4897C59.7408 33.7788 60.9393 35.3118 62.721 35.3118C64.5347 35.3118 65.7233 33.8106 65.7233 31.4897H65.7233Z" fill="black"/>
<path d="M80.6254 31.4897C80.6254 35.0201 78.7352 37.2884 75.8836 37.2884C75.1613 37.3262 74.4429 37.1598 73.8107 36.8083C73.1785 36.4567 72.6581 35.9343 72.309 35.3007H72.2551V40.9279H69.9231V25.8086H72.1803V27.6982H72.2232C72.5883 27.0677 73.1175 26.5479 73.7545 26.1943C74.3915 25.8406 75.1125 25.6662 75.8407 25.6897C78.7242 25.6897 80.6254 27.969 80.6254 31.4897ZM78.2279 31.4897C78.2279 29.1896 77.0392 27.6774 75.2256 27.6774C73.4438 27.6774 72.2453 29.2214 72.2453 31.4897C72.2453 33.7788 73.4438 35.3118 75.2256 35.3118C77.0392 35.3118 78.2279 33.8106 78.2279 31.4897Z" fill="black"/>
<path d="M88.8883 32.8282C89.0611 34.3735 90.5622 35.3881 92.6136 35.3881C94.5792 35.3881 95.9933 34.3734 95.9933 32.9801C95.9933 31.7706 95.1404 31.0464 93.1209 30.5501L91.1014 30.0636C88.2401 29.3725 86.9117 28.0343 86.9117 25.8628C86.9117 23.1742 89.2547 21.3275 92.5805 21.3275C95.8745 21.3275 98.1317 23.1742 98.2077 25.8628H95.8536C95.7127 24.3078 94.4272 23.3691 92.5486 23.3691C90.6701 23.3691 89.3846 24.3188 89.3846 25.7011C89.3846 26.8027 90.2056 27.451 92.2141 27.9472L93.9309 28.3688C97.128 29.1249 98.4552 30.4092 98.4552 32.6884C98.4552 35.6037 96.1342 37.4296 92.4407 37.4296C88.985 37.4296 86.6518 35.6466 86.5011 32.8281L88.8883 32.8282Z" fill="black"/>
<path d="M103.491 23.1212V25.8098H105.651V27.6565H103.491V33.9197C103.491 34.8927 103.923 35.3461 104.873 35.3461C105.129 35.3416 105.385 35.3236 105.64 35.2921V37.1278C105.213 37.2076 104.779 37.2437 104.345 37.2357C102.045 37.2357 101.148 36.3717 101.148 34.1684V27.6565H99.4957V25.8098H101.148V23.1212H103.491Z" fill="black"/>
<path d="M106.901 31.4908C106.901 27.9163 109.006 25.67 112.289 25.67C115.583 25.67 117.679 27.9162 117.679 31.4908C117.679 35.0752 115.594 37.3116 112.289 37.3116C108.985 37.3116 106.901 35.0752 106.901 31.4908ZM115.302 31.4908C115.302 29.0387 114.179 27.5915 112.289 27.5915C110.399 27.5915 109.276 29.0498 109.276 31.4908C109.276 33.9527 110.399 35.3889 112.289 35.3889C114.179 35.3889 115.302 33.9527 115.302 31.4908H115.302Z" fill="black"/>
<path d="M119.601 25.8086H121.825V27.7423H121.879C122.03 27.1384 122.384 26.6047 122.881 26.2309C123.379 25.8571 123.99 25.666 124.612 25.6897C124.881 25.6888 125.149 25.718 125.411 25.7767V27.958C125.072 27.8543 124.718 27.8067 124.363 27.8171C124.025 27.8033 123.687 27.8631 123.373 27.9922C123.06 28.1213 122.778 28.3167 122.547 28.565C122.316 28.8133 122.142 29.1087 122.036 29.4308C121.93 29.7528 121.895 30.094 121.933 30.4309V37.1695H119.601L119.601 25.8086Z" fill="black"/>
<path d="M136.163 33.8338C135.849 35.8962 133.84 37.3116 131.271 37.3116C127.966 37.3116 125.914 35.0973 125.914 31.5447C125.914 27.9812 127.977 25.67 131.173 25.67C134.316 25.67 136.292 27.8292 136.292 31.2739V32.0729H128.268V32.2138C128.231 32.6319 128.284 33.0531 128.422 33.4495C128.56 33.8458 128.781 34.2082 129.07 34.5125C129.359 34.8169 129.71 35.0563 130.098 35.2148C130.487 35.3733 130.905 35.4472 131.325 35.4318C131.876 35.4834 132.429 35.3558 132.901 35.0679C133.374 34.78 133.741 34.3472 133.948 33.8338L136.163 33.8338ZM128.279 30.4431H133.959C133.98 30.0671 133.923 29.6909 133.792 29.3381C133.66 28.9852 133.458 28.6633 133.196 28.3925C132.934 28.1218 132.619 27.908 132.271 27.7647C131.923 27.6214 131.549 27.5516 131.173 27.5597C130.793 27.5574 130.416 27.6304 130.065 27.7743C129.714 27.9183 129.394 28.1305 129.125 28.3985C128.856 28.6666 128.643 28.9853 128.498 29.3362C128.353 29.6871 128.278 30.0633 128.279 30.4431V30.4431Z" fill="black"/>
<path d="M46.3703 9.85835C46.8592 9.82327 47.3498 9.89713 47.8067 10.0746C48.2636 10.2521 48.6754 10.5287 49.0124 10.8846C49.3495 11.2405 49.6033 11.6668 49.7557 12.1327C49.908 12.5986 49.955 13.0925 49.8934 13.5787C49.8934 15.9708 48.6006 17.3458 46.3703 17.3458H43.6658V9.85835H46.3703ZM44.8287 16.2869H46.2404C46.5897 16.3078 46.9394 16.2505 47.2638 16.1192C47.5882 15.9879 47.8793 15.786 48.1158 15.528C48.3523 15.2701 48.5284 14.9626 48.6311 14.6281C48.7338 14.2935 48.7606 13.9402 48.7096 13.594C48.7569 13.2491 48.7274 12.8981 48.6231 12.566C48.5188 12.2338 48.3423 11.9289 48.1063 11.673C47.8703 11.4171 47.5807 11.2166 47.2581 11.0858C46.9355 10.955 46.588 10.8972 46.2404 10.9164H44.8287V16.2869Z" fill="black"/>
<path d="M51.2067 14.5191C51.1712 14.1477 51.2137 13.7731 51.3314 13.4191C51.4492 13.0652 51.6396 12.7397 51.8905 12.4637C52.1414 12.1877 52.4472 11.9671 52.7883 11.8162C53.1295 11.6652 53.4984 11.5873 53.8714 11.5873C54.2444 11.5873 54.6133 11.6652 54.9545 11.8162C55.2956 11.9671 55.6014 12.1877 55.8523 12.4637C56.1032 12.7397 56.2936 13.0652 56.4114 13.4191C56.5291 13.7731 56.5716 14.1477 56.5361 14.5191C56.5723 14.8908 56.5303 15.2659 56.4129 15.6205C56.2954 15.975 56.1051 16.301 55.8541 16.5776C55.6032 16.8542 55.2971 17.0752 54.9557 17.2265C54.6142 17.3777 54.2449 17.4558 53.8714 17.4558C53.4979 17.4558 53.1286 17.3777 52.7871 17.2265C52.4456 17.0752 52.1396 16.8542 51.8886 16.5776C51.6377 16.301 51.4474 15.975 51.3299 15.6205C51.2125 15.2659 51.1705 14.8908 51.2067 14.5191ZM55.3891 14.5191C55.3891 13.2942 54.8388 12.578 53.8732 12.578C52.9039 12.578 52.3586 13.2942 52.3586 14.5191C52.3586 15.7537 52.904 16.4644 53.8732 16.4644C54.8389 16.4644 55.3891 15.7488 55.3891 14.5191H55.3891Z" fill="black"/>
<path d="M63.6206 17.3458H62.4638L61.296 13.1842H61.2078L60.0449 17.3458H58.8991L57.3416 11.6953H58.4726L59.4848 16.0069H59.5682L60.7299 11.6953H61.7997L62.9614 16.0069H63.0496L64.0569 11.6953H65.172L63.6206 17.3458Z" fill="black"/>
<path d="M66.4818 11.695H67.5553V12.5926H67.6386C67.78 12.2702 68.0184 11.9999 68.3207 11.8195C68.6229 11.639 68.9739 11.5574 69.3248 11.5859C69.5997 11.5652 69.8758 11.6067 70.1325 11.7072C70.3893 11.8077 70.6201 11.9647 70.8079 12.1665C70.9958 12.3683 71.1358 12.6098 71.2176 12.8731C71.2994 13.1364 71.3209 13.4147 71.2806 13.6875V17.3453H70.1655V13.9675C70.1655 13.0595 69.7709 12.6079 68.9462 12.6079C68.7595 12.5992 68.5731 12.631 68.3999 12.701C68.2267 12.7711 68.0706 12.8778 67.9425 13.0138C67.8143 13.1498 67.7171 13.3119 67.6575 13.489C67.5978 13.6661 67.5772 13.854 67.5969 14.0398V17.3454H66.4818L66.4818 11.695Z" fill="black"/>
<path d="M73.0577 9.48962H74.1729V17.3458H73.0577V9.48962Z" fill="black"/>
<path d="M75.7228 14.5172C75.6873 14.1459 75.7298 13.7712 75.8476 13.4172C75.9654 13.0632 76.1558 12.7378 76.4067 12.4618C76.6577 12.1857 76.9635 11.9651 77.3046 11.8142C77.6458 11.6633 78.0147 11.5853 78.3878 11.5853C78.7608 11.5853 79.1298 11.6633 79.4709 11.8142C79.8121 11.9651 80.1179 12.1857 80.3688 12.4618C80.6197 12.7378 80.8102 13.0632 80.928 13.4172C81.0458 13.7712 81.0883 14.1459 81.0528 14.5172C81.0889 14.8889 81.0469 15.2641 80.9294 15.6186C80.8119 15.9732 80.6216 16.2992 80.3706 16.5758C80.1196 16.8523 79.8136 17.0733 79.4721 17.2246C79.1306 17.3758 78.7613 17.454 78.3878 17.454C78.0143 17.454 77.6449 17.3758 77.3035 17.2246C76.962 17.0733 76.6559 16.8523 76.4049 16.5758C76.1539 16.2992 75.9636 15.9732 75.8461 15.6186C75.7286 15.2641 75.6866 14.8889 75.7228 14.5172ZM79.9051 14.5172C79.9051 13.2924 79.3549 12.5761 78.3893 12.5761C77.42 12.5761 76.8747 13.2924 76.8747 14.5172C76.8747 15.7518 77.42 16.4626 78.3893 16.4626C79.3549 16.4626 79.9052 15.7469 79.9052 14.5172H79.9051Z" fill="black"/>
<path d="M82.2269 15.7488C82.2269 14.7317 82.9842 14.1454 84.3285 14.062L85.8591 13.9738V13.4861C85.8591 12.8893 85.4645 12.5523 84.7023 12.5523C84.0798 12.5523 83.6484 12.7808 83.5247 13.1803H82.4451C82.559 12.2098 83.472 11.5873 84.7538 11.5873C86.1704 11.5873 86.9693 12.2925 86.9693 13.4861V17.3468H85.8959V16.5527H85.8076C85.6285 16.8376 85.3771 17.0698 85.0789 17.2256C84.7807 17.3815 84.4465 17.4554 84.1104 17.4399C83.8732 17.4646 83.6335 17.4392 83.4066 17.3656C83.1798 17.2919 82.9709 17.1716 82.7935 17.0122C82.616 16.8529 82.4739 16.6582 82.3763 16.4406C82.2788 16.223 82.2279 15.9873 82.2269 15.7488ZM85.8591 15.266V14.7936L84.4793 14.8818C83.7011 14.9339 83.3482 15.1986 83.3482 15.6967C83.3482 16.2053 83.7893 16.5012 84.396 16.5012C84.5737 16.5192 84.7533 16.5013 84.9239 16.4485C85.0946 16.3956 85.2529 16.309 85.3894 16.1938C85.5259 16.0785 85.6378 15.937 85.7185 15.7776C85.7992 15.6182 85.847 15.4442 85.8591 15.266Z" fill="black"/>
<path d="M88.4348 14.5182C88.4348 12.7327 89.3527 11.6017 90.7803 11.6017C91.1334 11.5854 91.4839 11.67 91.7907 11.8455C92.0976 12.0211 92.3481 12.2803 92.513 12.593H92.5964V9.48962H93.7115V17.3458H92.6429V16.4531H92.5547C92.377 16.7637 92.1178 17.0197 91.805 17.1935C91.4922 17.3672 91.1379 17.4521 90.7803 17.439C89.3429 17.439 88.4348 16.3079 88.4348 14.5182ZM89.5868 14.5182C89.5868 15.7167 90.1517 16.4378 91.0965 16.4378C92.0364 16.4378 92.6172 15.7063 92.6172 14.5231C92.6172 13.3455 92.0303 12.6035 91.0965 12.6035C90.1578 12.6035 89.5867 13.3295 89.5867 14.5182H89.5868Z" fill="black"/>
<path d="M98.3253 14.5191C98.2898 14.1477 98.3323 13.7731 98.4501 13.4191C98.5678 13.0652 98.7582 12.7397 99.0091 12.4637C99.26 12.1877 99.5658 11.9671 99.907 11.8162C100.248 11.6652 100.617 11.5873 100.99 11.5873C101.363 11.5873 101.732 11.6652 102.073 11.8162C102.414 11.9671 102.72 12.1877 102.971 12.4637C103.222 12.7397 103.412 13.0652 103.53 13.4191C103.648 13.7731 103.69 14.1477 103.655 14.5191C103.691 14.8908 103.649 15.2659 103.532 15.6205C103.414 15.975 103.224 16.301 102.973 16.5776C102.722 16.8542 102.416 17.0752 102.074 17.2265C101.733 17.3777 101.364 17.4558 100.99 17.4558C100.617 17.4558 100.247 17.3777 99.9058 17.2265C99.5643 17.0752 99.2582 16.8542 99.0073 16.5776C98.7563 16.301 98.566 15.975 98.4486 15.6205C98.3311 15.2659 98.2892 14.8908 98.3253 14.5191ZM102.508 14.5191C102.508 13.2942 101.958 12.578 100.992 12.578C100.023 12.578 99.4773 13.2942 99.4773 14.5191C99.4773 15.7537 100.023 16.4644 100.992 16.4644C101.958 16.4644 102.508 15.7488 102.508 14.5191Z" fill="black"/>
<path d="M105.151 11.695H106.224V12.5926H106.307C106.449 12.2702 106.687 11.9999 106.989 11.8195C107.292 11.639 107.643 11.5574 107.994 11.5859C108.269 11.5652 108.545 11.6067 108.801 11.7072C109.058 11.8077 109.289 11.9647 109.477 12.1665C109.665 12.3683 109.805 12.6098 109.886 12.8731C109.968 13.1364 109.99 13.4147 109.949 13.6875V17.3453H108.834V13.9675C108.834 13.0595 108.44 12.6079 107.615 12.6079C107.428 12.5992 107.242 12.631 107.069 12.701C106.895 12.7711 106.739 12.8778 106.611 13.0138C106.483 13.1498 106.386 13.3119 106.326 13.489C106.267 13.6661 106.246 13.854 106.266 14.0398V17.3454H105.151V11.695Z" fill="black"/>
<path d="M116.251 10.2886V11.7211H117.475V12.6604H116.251V15.5659C116.251 16.1578 116.495 16.4169 117.05 16.4169C117.192 16.4165 117.334 16.4079 117.475 16.3912V17.3201C117.275 17.3559 117.072 17.375 116.869 17.3771C115.629 17.3771 115.135 16.9408 115.135 15.8514V12.6603H114.238V11.721H115.135V10.2886H116.251Z" fill="black"/>
<path d="M118.999 9.48962H120.104V12.6034H120.192C120.34 12.278 120.585 12.0062 120.894 11.8251C121.202 11.644 121.559 11.5623 121.915 11.5912C122.188 11.5764 122.462 11.622 122.716 11.725C122.97 11.8279 123.198 11.9856 123.383 12.1868C123.569 12.388 123.708 12.6278 123.791 12.8889C123.874 13.1501 123.897 13.4263 123.861 13.6977V17.3458H122.745V13.9728C122.745 13.0703 122.324 12.6132 121.536 12.6132C121.345 12.5975 121.152 12.6239 120.972 12.6904C120.791 12.757 120.627 12.8622 120.492 12.9986C120.356 13.1351 120.252 13.2995 120.187 13.4804C120.122 13.6612 120.097 13.8542 120.114 14.0458V17.3458H118.999L118.999 9.48962Z" fill="black"/>
<path d="M130.363 15.8193C130.211 16.3357 129.883 16.7824 129.436 17.0812C128.988 17.3801 128.45 17.512 127.915 17.454C127.542 17.4638 127.172 17.3925 126.83 17.245C126.488 17.0976 126.183 16.8774 125.934 16.5999C125.686 16.3224 125.501 15.9942 125.392 15.6381C125.283 15.2819 125.253 14.9064 125.304 14.5375C125.255 14.1674 125.285 13.7911 125.394 13.4339C125.502 13.0766 125.686 12.7469 125.933 12.467C126.18 12.1871 126.485 11.9635 126.826 11.8114C127.167 11.6593 127.536 11.5822 127.91 11.5854C129.482 11.5854 130.43 12.6596 130.43 14.4339V14.823H126.44V14.8855C126.423 15.0929 126.449 15.3016 126.517 15.4983C126.585 15.695 126.693 15.8753 126.835 16.0277C126.976 16.1801 127.148 16.3012 127.34 16.3833C127.531 16.4654 127.737 16.5066 127.945 16.5042C128.212 16.5363 128.482 16.4882 128.722 16.3663C128.961 16.2443 129.159 16.0539 129.289 15.8192L130.363 15.8193ZM126.44 13.9983H129.294C129.308 13.8086 129.283 13.6182 129.219 13.4391C129.155 13.26 129.054 13.0963 128.923 12.9584C128.792 12.8205 128.634 12.7116 128.458 12.6386C128.282 12.5656 128.094 12.5302 127.903 12.5345C127.711 12.5321 127.519 12.5683 127.341 12.641C127.162 12.7137 127 12.8215 126.863 12.9579C126.727 13.0943 126.619 13.2566 126.547 13.4353C126.474 13.614 126.438 13.8054 126.44 13.9983H126.44Z" fill="black"/>
</svg>
