<svg width="55" height="55" viewBox="0 0 55 55" fill="none" xmlns="http://www.w3.org/2000/svg">
<path d="M38.181 23.111L27.5 12.43L16.8124 23.1154L10.5974 16.9004L27.5 0L44.396 16.896L38.181 23.111ZM55 27.5L48.785 21.285L42.57 27.5L48.785 33.715L55 27.5ZM38.181 31.889L27.5 42.57L16.8146 31.8846L10.5952 38.0952L10.5974 38.0996L27.5 55L44.396 38.104L44.4048 38.0952L38.181 31.889ZM12.43 27.5022L6.215 21.2872L0 27.5022L6.215 33.7172L12.43 27.5022Z" fill="#F3BA2F"/>
<path d="M20.4831 27.4981H20.4809L26.7861 21.1907L31.4479 25.8503L31.9825 26.3849L33.0869 27.4893L33.0957 27.4981L33.0869 27.5069L26.7861 33.8099L20.4787 27.5025L20.4765 27.4981H20.4831Z" fill="#F3BA2F"/>
</svg>
