<svg width="2062" height="1434" viewBox="0 0 2062 1434" fill="none" xmlns="http://www.w3.org/2000/svg">
<mask id="mask0_3140_16374" style="mask-type:alpha" maskUnits="userSpaceOnUse" x="-621" y="-1185" width="2305" height="2741">
<path fill-rule="evenodd" clip-rule="evenodd" d="M165.269 820.523C165.505 820.598 165.879 820.706 166.412 820.836C168.509 821.348 175.185 822.698 187.675 822.449C213.728 821.93 262.931 814.247 331.99 782.033C473.365 716.084 649.244 568.67 785.685 332.347C922.127 96.0232 961.852 -130 948.278 -285.409C941.647 -361.323 923.699 -407.775 911.122 -430.598C905.093 -441.538 900.585 -446.645 899.093 -448.205C898.714 -448.602 898.433 -448.871 898.251 -449.039C898.015 -449.113 897.641 -449.221 897.108 -449.351C895.011 -449.863 888.335 -451.214 875.845 -450.965C849.792 -450.445 800.589 -442.762 731.53 -410.548C590.154 -344.599 414.276 -197.185 277.834 39.1385C141.393 275.462 101.668 501.484 115.242 656.893C121.873 732.807 139.821 779.26 152.398 802.083C158.427 813.023 162.935 818.13 164.426 819.69C164.806 820.087 165.087 820.356 165.269 820.523ZM898.559 -448.935L898.557 -448.935L898.559 -448.935ZM898.007 -449.253C897.994 -449.264 897.994 -449.264 898.008 -449.252L898.007 -449.253ZM-356.98 -327.372C-761.816 373.825 -692.098 1171.99 -201.26 1455.37C289.577 1738.76 1015.66 1400.05 1420.5 698.857C1825.34 -2.33962 1755.62 -800.5 1264.78 -1083.89C773.943 -1367.27 47.8562 -1028.57 -356.98 -327.372Z" fill="#D72543"/>
</mask>
<g mask="url(#mask0_3140_16374)">
<g filter="url(#filter0_f_3140_16374)">
<path d="M-1944.62 1181.75C-2105.98 842.255 -2073.87 410.833 -1823.65 -36.408C-1573.93 -482.738 -1119.77 -914.013 -510.463 -1203.63C98.847 -1493.25 720.038 -1573.11 1223.82 -1484.93C1728.63 -1396.57 2083.44 -1149.07 2244.81 -809.573C2406.18 -470.079 2374.07 -38.6565 2123.84 408.584C1874.13 854.914 1419.97 1286.19 810.66 1575.81C201.35 1865.42 -419.84 1945.28 -923.62 1857.11C-1428.43 1768.75 -1783.25 1521.24 -1944.62 1181.75Z" stroke="url(#paint0_diamond_3140_16374)" stroke-width="733.02"/>
</g>
</g>
<defs>
<filter id="filter0_f_3140_16374" x="-2948.06" y="-2422.99" width="6196.31" height="5218.16" filterUnits="userSpaceOnUse" color-interpolation-filters="sRGB">
<feFlood flood-opacity="0" result="BackgroundImageFix"/>
<feBlend mode="normal" in="SourceGraphic" in2="BackgroundImageFix" result="shape"/>
<feGaussianBlur stdDeviation="268.774" result="effect1_foregroundBlur_3140_16374"/>
</filter>
<radialGradient id="paint0_diamond_3140_16374" cx="0" cy="0" r="1" gradientUnits="userSpaceOnUse" gradientTransform="translate(2417.68 -1299.65) rotate(154.577) scale(8088.67 23019.6)">
<stop stop-color="#FF9446"/>
<stop offset="0.249256" stop-color="#F5BC00"/>
<stop offset="0.525297" stop-color="#E32847"/>
<stop offset="1" stop-color="#3568DD" stop-opacity="0"/>
</radialGradient>
</defs>
</svg>
