<svg width="114" height="53" viewBox="0 0 114 53" fill="none" xmlns="http://www.w3.org/2000/svg">
    <path d="M83.7071 18.7071C84.0976 18.3166 84.0976 17.6834 83.7071 17.2929L77.3431 10.9289C76.9526 10.5384 76.3195 10.5384 75.9289 10.9289C75.5384 11.3195 75.5384 11.9526 75.9289 12.3431L81.5858 18L75.9289 23.6569C75.5384 24.0474 75.5384 24.6805 75.9289 25.0711C76.3195 25.4616 76.9526 25.4616 77.3431 25.0711L83.7071 18.7071ZM31 19H83V17H31V19Z"
          fill="#0E0E0E"/>
    <path d="M30.2929 35.7071C29.9024 35.3166 29.9024 34.6834 30.2929 34.2929L36.6569 27.9289C37.0474 27.5384 37.6805 27.5384 38.0711 27.9289C38.4616 28.3195 38.4616 28.9526 38.0711 29.3431L32.4142 35L38.0711 40.6569C38.4616 41.0474 38.4616 41.6805 38.0711 42.0711C37.6805 42.4616 37.0474 42.4616 36.6569 42.0711L30.2929 35.7071ZM83 36H31V34H83V36Z"
          fill="#0E0E0E"/>
    <rect x="1" y="1" width="51" height="51" rx="11" stroke="#0E0E0E" stroke-width="2"/>
    <rect x="62" y="1" width="51" height="51" rx="25.5" stroke="#0E0E0E" stroke-width="2"/>
</svg>
