<svg width="27" height="28" viewBox="0 0 27 28" fill="none" xmlns="http://www.w3.org/2000/svg">
<path d="M19.8983 3.98315C20.8544 3.98315 21.7714 4.36297 22.4475 5.03904C23.1235 5.71511 23.5033 6.63206 23.5033 7.58817V20.3444C23.5033 21.3005 23.1235 22.2174 22.4475 22.8935C21.7714 23.5696 20.8544 23.9494 19.8983 23.9494H7.14212C6.18602 23.9494 5.26907 23.5696 4.59299 22.8935C3.91692 22.2174 3.53711 21.3005 3.53711 20.3444V7.58817C3.53711 6.63206 3.91692 5.71511 4.59299 5.03904C5.26907 4.36297 6.18602 3.98315 7.14212 3.98315H19.8983ZM21.8395 10.0839H5.20096V20.3444C5.20096 21.4159 6.0706 22.2855 7.14212 22.2855H19.8983C20.4132 22.2855 20.9069 22.081 21.2709 21.717C21.635 21.3529 21.8395 20.8592 21.8395 20.3444V10.0839ZM8.80598 16.7394C9.17371 16.7394 9.52639 16.8854 9.78641 17.1455C10.0464 17.4055 10.1925 17.7582 10.1925 18.1259C10.1925 18.4936 10.0464 18.8463 9.78641 19.1063C9.52639 19.3664 9.17371 19.5125 8.80598 19.5125C8.43824 19.5125 8.08557 19.3664 7.82554 19.1063C7.56552 18.8463 7.41943 18.4936 7.41943 18.1259C7.41943 17.7582 7.56552 17.4055 7.82554 17.1455C8.08557 16.8854 8.43824 16.7394 8.80598 16.7394ZM13.5202 16.7394C13.888 16.7394 14.2406 16.8854 14.5007 17.1455C14.7607 17.4055 14.9068 17.7582 14.9068 18.1259C14.9068 18.4936 14.7607 18.8463 14.5007 19.1063C14.2406 19.3664 13.888 19.5125 13.5202 19.5125C13.1525 19.5125 12.7998 19.3664 12.5398 19.1063C12.2798 18.8463 12.1337 18.4936 12.1337 18.1259C12.1337 17.7582 12.2798 17.4055 12.5398 17.1455C12.7998 16.8854 13.1525 16.7394 13.5202 16.7394ZM8.80598 12.3024C9.17371 12.3024 9.52639 12.4485 9.78641 12.7085C10.0464 12.9686 10.1925 13.3212 10.1925 13.689C10.1925 14.0567 10.0464 14.4094 9.78641 14.6694C9.52639 14.9294 9.17371 15.0755 8.80598 15.0755C8.43824 15.0755 8.08557 14.9294 7.82554 14.6694C7.56552 14.4094 7.41943 14.0567 7.41943 13.689C7.41943 13.3212 7.56552 12.9686 7.82554 12.7085C8.08557 12.4485 8.43824 12.3024 8.80598 12.3024ZM13.5202 12.3024C13.888 12.3024 14.2406 12.4485 14.5007 12.7085C14.7607 12.9686 14.9068 13.3212 14.9068 13.689C14.9068 14.0567 14.7607 14.4094 14.5007 14.6694C14.2406 14.9294 13.888 15.0755 13.5202 15.0755C13.1525 15.0755 12.7998 14.9294 12.5398 14.6694C12.2798 14.4094 12.1337 14.0567 12.1337 13.689C12.1337 13.3212 12.2798 12.9686 12.5398 12.7085C12.7998 12.4485 13.1525 12.3024 13.5202 12.3024ZM18.2345 12.3024C18.6022 12.3024 18.9549 12.4485 19.2149 12.7085C19.4749 12.9686 19.621 13.3212 19.621 13.689C19.621 14.0567 19.4749 14.4094 19.2149 14.6694C18.9549 14.9294 18.6022 15.0755 18.2345 15.0755C17.8667 15.0755 17.5141 14.9294 17.254 14.6694C16.994 14.4094 16.8479 14.0567 16.8479 13.689C16.8479 13.3212 16.994 12.9686 17.254 12.7085C17.5141 12.4485 17.8667 12.3024 18.2345 12.3024ZM19.8983 5.64701H7.14212C6.6273 5.64701 6.13355 5.85152 5.76952 6.21556C5.40548 6.5796 5.20096 7.07334 5.20096 7.58817V8.4201H21.8395V7.58817C21.8395 7.07334 21.635 6.5796 21.2709 6.21556C20.9069 5.85152 20.4132 5.64701 19.8983 5.64701Z" fill="#191919"/>
</svg>
