<svg width="24" height="24" viewBox="0 0 24 24" fill="none" xmlns="http://www.w3.org/2000/svg">
<path fill-rule="evenodd" clip-rule="evenodd" d="M24 2.94127C24 1.31794 22.6821 0 21.0587 0H2.94127C1.31794 0 0 1.31794 0 2.94127V21.0587C0 22.6821 1.31794 24 2.94127 24H21.0587C22.6821 24 24 22.6821 24 21.0587V2.94127ZM13.2912 12.0001C13.2912 15.1612 10.746 17.7237 7.60664 17.7237C4.46723 17.7237 1.92188 15.1612 1.92188 12.0001C1.92188 8.83903 4.467 6.27633 7.60664 6.27633C10.7462 6.27633 13.2912 8.83903 13.2912 12.0001ZM19.5274 12.0001C19.5274 14.9755 18.2548 17.3886 16.685 17.3886C15.1152 17.3886 13.8426 14.9755 13.8426 12.0001C13.8426 9.02466 15.115 6.61163 16.6848 6.61163C18.2546 6.61163 19.5272 9.02386 19.5272 12.0001H19.5274ZM22.0781 12.0001C22.0781 14.6654 21.6306 16.8273 21.0785 16.8273C20.5263 16.8273 20.079 14.666 20.079 12.0001C20.079 9.33422 20.5265 7.17286 21.0785 7.17286C21.6304 7.17286 22.0781 9.33403 22.0781 12.0001Z" fill="#1D1D1D"/>
</svg>
