<svg width="27" height="28" viewBox="0 0 27 28" fill="none" xmlns="http://www.w3.org/2000/svg">
<path d="M13.5208 6.13427C16.0214 6.13427 18.4196 7.12762 20.1877 8.8958C21.9559 10.664 22.9493 13.0621 22.9493 15.5627C22.9493 18.0633 21.9559 20.4614 20.1877 22.2296C18.4196 23.9978 16.0214 24.9911 13.5208 24.9911C11.0202 24.9911 8.62202 23.9978 6.85383 22.2296C5.08564 20.4614 4.09229 18.0633 4.09229 15.5627C4.09229 13.0621 5.08564 10.664 6.85383 8.8958C8.62202 7.12762 11.0202 6.13427 13.5208 6.13427ZM13.5208 7.79811C11.4615 7.79811 9.4865 8.61617 8.03035 10.0723C6.5742 11.5285 5.75614 13.5034 5.75614 15.5627C5.75614 17.622 6.5742 19.597 8.03035 21.0531C9.4865 22.5092 11.4615 23.3273 13.5208 23.3273C15.5801 23.3273 17.5551 22.5092 19.0112 21.0531C20.4674 19.597 21.2854 17.622 21.2854 15.5627C21.2854 13.5034 20.4674 11.5285 19.0112 10.0723C17.5551 8.61617 15.5801 7.79811 13.5208 7.79811ZM13.5208 9.46195C13.7218 9.46196 13.9161 9.53477 14.0676 9.6669C14.2191 9.79904 14.3176 9.98157 14.3449 10.1807L14.3527 10.2939V15.2854C14.3526 15.4962 14.2726 15.6991 14.1287 15.8531C13.9848 16.0071 13.7878 16.1008 13.5775 16.1151C13.3672 16.1295 13.1593 16.0635 12.9958 15.9305C12.8323 15.7975 12.7254 15.6073 12.6966 15.3985L12.6889 15.2854V10.2939C12.6889 10.0732 12.7765 9.86163 12.9325 9.70562C13.0885 9.5496 13.3001 9.46195 13.5208 9.46195ZM21.4485 6.26072L21.5406 6.32728L22.825 7.39657C22.9859 7.53184 23.0896 7.72296 23.1153 7.93154C23.141 8.14012 23.0868 8.35069 22.9636 8.52095C22.8404 8.6912 22.6573 8.80853 22.4511 8.84934C22.245 8.89015 22.031 8.85143 21.8522 8.74096L21.7613 8.6744L20.4757 7.60511C20.3149 7.46984 20.2112 7.27872 20.1855 7.07014C20.1598 6.86156 20.214 6.65099 20.3372 6.48073C20.4604 6.31048 20.6434 6.19316 20.8496 6.15234C21.0558 6.11153 21.2697 6.15025 21.4485 6.26072ZM16.0166 3.36121C16.2273 3.36127 16.4302 3.44134 16.5843 3.58524C16.7383 3.72914 16.8319 3.92613 16.8463 4.13642C16.8607 4.34671 16.7947 4.55461 16.6617 4.71812C16.5286 4.88163 16.3385 4.98855 16.1297 5.01728L16.0166 5.02505H11.025C10.8142 5.02498 10.6113 4.94491 10.4573 4.80101C10.3033 4.65711 10.2096 4.46012 10.1953 4.24983C10.1809 4.03954 10.2469 3.83164 10.3799 3.66813C10.5129 3.50462 10.703 3.3977 10.9119 3.36897L11.025 3.36121H16.0166Z" fill="#191919"/>
</svg>
