<svg width="281" height="326" viewBox="0 0 281 326" fill="none" xmlns="http://www.w3.org/2000/svg">
<path d="M0 24C0 10.7452 10.7452 0 24 0H281V326H24C10.7452 326 0 315.255 0 302V24Z" fill="#3568DD"/>
<path d="M76.0837 116.628C76.511 116.502 76.6806 116.365 76.6365 116.039M75.2254 118.777C75.7028 118.671 76.0303 118.402 77.0979 117.448M74.2843 121.783C75.3615 121.256 77.3822 119.982 77.3999 119.793M73.9113 124.135C73.6225 123.37 74.4263 121.928 77.6354 120.322M73.5286 125.843C74.4528 125.462 76.7229 122.882 76.7604 123.275M73.0125 128.896C73.4723 125.517 76.2974 125.587 75.881 124.947M72.2496 130.674C73.8959 128.365 75.277 125.789 77.3923 126.04M71.0303 134.656C73.4865 134.297 73.5977 131.415 77.2889 126.965M70.2389 136.384C69.744 132.792 72.4432 131.639 76.666 127.977M68.1544 138.8C70.3709 139.041 70.8794 136.381 76.1925 131.228M68.5595 140.736C72.4883 139.762 74.1586 135.563 77.7392 132.711M66.5132 144.958C69.4788 140.664 72.9517 136.718 77.2969 133.955M67.4759 145.755C67.3458 141.823 70.5427 138.181 76.718 134.05M66.3108 149.014C70.5897 146.868 74.0438 144.356 76.9485 137.181M65.9672 151.004C67.5461 148.354 70.2569 143.241 75.8341 137.754M64.3925 154.026C68.0108 151.829 70.9162 149.06 76.905 139.828M63.2035 156.465C71.414 149.498 74.2469 146.893 76.2465 142.136M62.9435 159.21C68.4076 155.864 70.6772 152.223 77.6288 142.823M62.4395 162.452C66.228 153.03 72.4149 145.837 77.4005 144.898M61.1242 163.588C62.7495 154.238 66.7048 148.348 75.8207 145.533M60.6458 166.622C68.4748 161.554 73.9489 155.011 76.8177 146.785M60.1892 169.722C62.8552 162.631 68.5398 156.139 76.0201 148.829M58.629 172.499C65.9839 163.276 70.4535 158.155 75.7001 151.334M58.5995 174.568C61.4908 170.638 68.4607 163.994 76.0213 152.059M57.5975 176.27C59.1681 171.117 65.639 163.762 76.3199 154.267M56.7989 178.581C62.1806 171.803 69.4865 162.191 75.7499 155.523M54.3343 182.113C56.2632 171.864 60.8788 164.753 76.3372 156.406M55.1445 184.973C61.3016 171.271 68.6463 165.351 77.4523 158.224M53.2239 186.114C55.8121 174.785 64.3474 167.195 76.2313 160.654M52.6338 187.993C59.3825 178.303 66.5133 172.74 76.1887 161.177M52.7783 191.186C65.5917 177.264 73.1212 168.19 76.8205 163.736M52.7517 192.861C58.5053 184.429 65.9752 175.884 76.7185 164.573M50.536 195.366C49.9997 184.82 56.7162 178.996 77.0639 166M50.9951 198.204C57.4043 182.458 67.8118 170.099 77.1222 167.693M49.7625 200.757C56.9191 189.491 67.146 178.827 76.6275 170.84M48.2069 203.602C56.1866 191.374 66.0274 179.558 75.8506 170.602M48.2152 206.607C56.0199 198.585 65.58 186.972 77.4541 172.941M47.0953 209.007C61.3917 203.159 70.4897 191.618 76.2664 173.815M46.3328 212.788C54.1264 193.138 65.7589 180.565 77.1762 176.554M44.1239 214.369C61.2554 199.325 69.002 190.643 76.2568 178.675M43.1475 216.297C46.7673 211.67 54.8488 203.772 75.7654 179.828M43.6043 219.942C49.366 208.663 59.8002 197.192 77.7336 181.389M40.8026 222.996C49.3889 212.133 63.5356 194.885 76.7248 182.285M40.9923 226.254C49.3811 217.071 60.2438 205.099 77.5132 182.53M39.8982 228.116C48.1067 224.734 57.2519 213.904 79.346 183.009M38.1144 230.976C51.4609 221.492 63.2192 208.131 78.4189 184.284M37.1821 232.999C59.2594 219.545 75.5425 201.904 79.0739 184.884M37.848 235.045C54.9405 220.183 67.1771 204.983 81.2109 186.263M38.6065 235.964C40.9426 225.379 51.4303 213.431 81.3962 187.945M38.8467 235.35C56.2107 220.107 67.0958 207.447 82.2861 188.316M40.4784 235.332C55.6344 216.759 72.2167 200.362 81.7647 188.366M42.6245 236.88C66.0152 223.536 82.8284 205.372 82.2067 189.2M43.4897 236.311C49.9835 229.459 61.3767 217.518 83.157 191.299M45.3217 235.934C67.5047 226.295 82.2167 209.068 83.5143 192.028M45.8588 236.104C62.988 220.51 77.5738 203.456 84.3486 193.493M47.3431 237.11C65.3308 217.22 77.9084 204.775 84.8778 194.137M49.0615 236.336C59.1785 228.441 70.1531 215.73 86.0119 195.362M49.0222 237.777C61.1709 224.407 74.4045 209.367 85.4742 196.268M51.4604 237.82C60.6664 234.826 68.9216 225.389 85.9632 196.26M52.5198 237.886C58.3068 233.506 67.6768 223.47 87.0989 197.452M54.6319 236.604C63.4615 224.167 70.5897 215.205 87.1557 197.935M54.6184 238.251C59.431 228.474 66.1257 221.031 89.2776 198.374M57.1647 238.309C67.4813 225.714 73.5718 215.299 88.286 199.286M58.4167 238.712C68.0831 219.475 79.3581 207.114 89.8543 201.908M59.1421 239.037C77.1373 217.626 88.2752 204.025 91.3579 202.973M60.6284 239.067C74.6684 231.475 85.5804 219.485 90.8075 202.169M61.2216 239.418C74.8533 230.307 83.5278 219.832 91.9654 202.94M62.5951 238.029C77.8874 220.707 90.1462 206.734 92.1282 204.031M63.5295 238.761C67.6982 236.015 76.612 224.597 92.0359 205.666M65.2358 238.993C72.4698 227.78 83.0176 214.039 93.4978 207.498M66.9832 240.075C72.4758 222.447 81.4753 212.314 93.3028 207.105M68.1203 239.103C78.0162 224.573 85.9576 215.392 94.4513 208.548M69.2244 240.317C71.6376 228.335 78.185 219.655 96.0774 210.434M69.5532 239.232C73.3044 228.986 80.3612 219.702 94.7663 210.374M70.6628 240.686C73.5061 233.324 79.6642 223.833 95.537 212.023M72.4769 240.192C74.3298 231.858 80.4165 225.007 97.7891 212.599M74.0756 240.228C77.0701 239.511 79.6621 237.515 79.4613 232.74M80.1263 232.887C81.1487 225.19 86.3242 220.908 97.7971 212.814M75.709 240.967C74.7929 239.799 76.4161 238.018 78.7315 235.9M82.6125 231.467C89.3976 227.421 92.0498 223.883 97.4469 215.968M76.3405 241.565C77.4329 239.116 79.3526 237.302 79.3432 236.522M85.6564 230.305C90.7705 224.659 93.3064 219.922 95.8644 217.348M77.1647 241.54C77.9628 240.395 77.7136 239.826 78.9315 238.053M88.3068 229.093C92.4345 227.102 93.428 223.996 95.3729 220.376M78.3069 241.138C79.006 240.604 78.9874 240.645 79.4134 239.795M76.7572 114.319V114.319Z" stroke="#9BB0D8" stroke-width="2" stroke-linecap="round"/>
<path d="M56.2705 238.077C51.8567 234.988 44.2818 234.243 37.4156 235.353M37.345 234.949C47.2319 224.004 51.246 212.203 52.0138 192.108M51.1942 192.081C58.555 173.152 65.4751 153.438 77.5002 113.858M77.209 113.971C66.1286 132.776 66.1422 149.64 76.1522 179.881M77.0064 180.16C84.7927 186.723 88.4653 193.858 93.0132 205.098M92.1198 205.459C94.0411 207.256 94.8775 208.664 97.659 213.388M96.114 211.495C96.2099 215.892 94.7822 218.503 95.6683 219.326M93.8204 219.62C93.4099 220.939 92.4769 222.988 90.7209 227.068M90.2607 225.892C88.9616 226.589 87.609 226.817 86.5837 227.685M86.8478 227.486C85.1042 229.994 83.9363 229.496 79.7939 232.492M78.6513 232.527C80.7879 235.019 80.0005 236.675 78.4631 240.963M78.6543 240.222C72.9428 236.826 67.1304 236.203 57.3994 237.051M56.8757 237.34V237.34Z" stroke="white" stroke-width="2" stroke-linecap="round"/>
<path d="M75.0084 114.927C75.4567 118.361 76.2957 122.222 76.2957 125.741C76.2957 127.786 77.068 129.806 77.068 131.834C77.068 134.608 77.0022 137.656 77.5257 140.372C77.8722 142.17 77.5829 144.274 77.5829 146.098C77.5829 148.157 77.5829 150.216 77.5829 152.275C77.5829 160.108 77.8619 168 77.5686 175.827C77.4418 179.211 77.068 182.567 77.068 185.948C77.068 188.611 77.3106 191.42 76.9393 194.063C76.511 197.11 77.0126 200.656 77.3827 203.704C77.6389 205.814 78.0978 208.07 78.0978 210.178C78.0978 211.731 77.9112 213.392 78.155 214.928C78.5187 217.219 78.6127 219.584 78.6127 221.911C78.6127 224.053 79.1276 226.144 79.1276 228.273C79.1276 232.728 79.6425 237.118 79.6425 241.561C79.6425 243.224 79.8146 244.878 79.9 246.481C79.9321 247.085 79.5764 249.247 80.1574 249.534" stroke="white" stroke-width="2" stroke-linecap="round"/>
<path d="M254.327 198.088C254.327 198.591 254.254 198.72 254.736 198.888C254.97 198.97 255.364 199.281 255.615 199.143C255.917 198.977 256.121 198.145 255.873 197.869C255.653 197.624 255.084 197.557 254.736 197.655C254.428 197.742 254.374 197.994 254.253 198.233" stroke="white" stroke-width="2" stroke-linecap="round"/>
<path d="M26.0932 256.913C26.4671 256.359 27.7253 256.412 28.3244 256.404C30.7925 256.372 33.265 256.39 35.7332 256.404C38.6112 256.422 41.446 256.849 44.3148 256.913C44.965 256.928 45.4594 257.274 46.0884 257.366C47.1219 257.516 48.2222 257.422 49.2636 257.422C51.018 257.422 52.7725 257.422 54.5269 257.422C55.7462 257.422 56.9055 257.574 58.1169 257.663C59.4961 257.764 60.8154 257.393 62.1932 257.422C66.3455 257.51 70.4309 258.695 74.565 258.695C74.9233 258.695 76.3908 258.9 76.5531 258.539C76.898 257.772 77.068 256.983 77.068 256.15C77.068 254.6 77.1802 252.34 77.6401 250.863C77.9859 249.752 80.4763 250.297 81.3588 250.297C86.8325 250.297 92.2344 249.903 97.6924 249.774C102.697 249.657 107.68 249.304 112.682 249.732C118.039 250.19 123.269 249.615 128.615 249.534C133.493 249.46 138.355 249.666 143.218 249.266C147.248 248.934 151.207 248.771 155.275 248.771C157.474 248.771 159.625 248.516 161.826 248.516C163.485 248.516 164.861 248.023 166.417 247.767C168.946 247.35 164.23 257.345 165.945 257.422C167.576 257.496 169.207 257.584 170.722 257.026C172.252 256.464 173.95 258.022 175.671 257.549C177.546 257.035 181.73 258.303 183.137 256.913" stroke="white" stroke-width="2" stroke-linecap="round"/>
<path d="M181.592 257.168C186.674 255.81 192.05 255.676 197.297 255.401C200.345 255.241 203.409 254.933 206.45 254.878C207.173 254.865 207.772 254.514 208.481 254.425C209.817 254.258 211.225 254.22 212.572 254.129C215.144 253.953 217.703 253.559 220.281 253.351C224.462 253.014 228.647 251.824 232.839 251.824C233.976 251.824 235.089 251.348 236.286 251.315C238.044 251.267 239.675 250.698 241.32 250.156C243.185 249.542 245.498 249.102 247.442 249.025C248.414 248.987 246.344 250.853 245.954 251.202C244.667 252.355 243.362 253.794 242.464 255.274C241.486 256.885 239.587 257.881 238.402 259.345C237.832 260.05 237.198 260.479 236.557 261.112C235.273 262.382 234.034 263.86 232.824 265.056" stroke="white" stroke-width="2" stroke-linecap="round"/>
<path d="M248.529 269.382C245.151 269.382 242.46 269.299 239.289 268.124C237.695 267.533 236.098 266.876 234.569 266.272C231.708 265.141 228.498 263.784 225.358 263.784C220.391 263.784 215.425 262.601 210.426 263.218C207.439 263.587 204.81 264.131 201.931 265.042C200.385 265.531 198.421 265.391 197.039 266.074" stroke="white" stroke-width="2" stroke-linecap="round"/>
<path d="M213.773 269.127C211.911 269.18 210.06 269.394 208.195 269.382C205.745 269.366 203.431 268.779 201.015 268.505C197.45 268.101 193.684 268.255 190.088 268.124C182.253 267.837 174.446 267.346 166.603 267.346C159.24 267.346 151.61 267.281 144.348 268.477C142.739 268.742 141.129 269.021 139.513 269.24C138.375 269.395 137.186 269.252 136.081 269.58C134.879 269.936 133.414 270.4 132.162 270.4" stroke="white" stroke-width="2" stroke-linecap="round"/>
<path d="M148.638 267.855C143.971 267.5 139.114 266.618 134.45 266.583C130.176 266.55 125.541 266.49 121.406 267.657C117.394 268.79 113.528 269.283 109.392 269.891C104.329 270.635 99.5072 271.163 94.3598 271.163C71.2349 271.163 48.1936 269.891 25.0633 269.891" stroke="white" stroke-width="2" stroke-linecap="round"/>
<path d="M45.9167 266.583C39.2464 267.024 32.5269 266.838 25.8357 266.838" stroke="white" stroke-width="2" stroke-linecap="round"/>
<path d="M130.617 275.234C134.01 273.822 138.118 274.171 141.687 273.651C143.334 273.411 144.953 273.101 146.593 272.831C148.988 272.437 151.449 272.86 153.859 272.661C155.784 272.503 157.131 271.324 158.965 271.022C161.73 270.566 164.697 271.959 167.575 271.615C168.395 271.517 168.991 271.08 169.749 270.824C170.845 270.453 172.252 270.638 173.382 270.668C175.774 270.732 178.054 271.417 180.448 271.417C185.739 271.417 190.973 271.926 196.252 271.926C198.83 271.926 201.307 272.69 203.875 272.69C206.979 272.69 210.065 273.453 213.158 273.453C214.324 273.453 221.754 273.823 221.754 273.057C221.754 271.957 221.955 270.624 220.924 269.891C218.967 268.498 219.966 267.283 222.297 267.106C224.706 266.923 227.308 266.783 229.477 267.912C231.669 269.052 234.2 269.365 236.5 270.258C238.326 270.967 240.749 271.266 242.693 271.615C244.111 271.87 245.516 272.563 246.898 273.001C250.864 274.257 255.451 273.962 259.599 273.962" stroke="white" stroke-width="2" stroke-linecap="round"/>
<path d="M245.182 265.565C245.299 266.029 246.923 265.909 247.285 265.961C250.045 266.359 252.796 266.328 255.58 266.328C257.95 266.328 260.319 266.328 262.689 266.328" stroke="white" stroke-width="2" stroke-linecap="round"/>
<path d="M241.062 262.257C247.146 262.472 253.24 262.512 259.341 262.512" stroke="white" stroke-width="2" stroke-linecap="round"/>
<path d="M183.906 240.2C185.144 240.522 186.462 240.578 187.731 240.703C192.665 241.191 197.605 241.621 202.541 242.09C205.627 242.384 208.699 242.747 211.787 243.005C214.103 243.199 216.357 243.761 218.652 244.041C219.784 244.178 220.868 244.534 221.989 244.684C222.941 244.811 223.841 244.796 224.745 245.187C225.918 245.694 227.248 245.686 228.254 246.574C229.82 247.956 232.237 248.314 234.113 249.027C235.453 249.537 236.69 250.231 238.1 250.696" stroke="white" stroke-width="2" stroke-linecap="round"/>
<path d="M113.701 249.796C125.226 244.581 136.852 239.522 148.202 233.937C149.619 233.24 151.007 232.469 152.572 232.141C154.96 231.64 157.599 232.225 159.913 231.553C164.498 230.223 168.539 226.634 173.546 226.475C177.173 226.359 180.238 223.95 183.893 223.434C185.809 223.164 187.339 222.422 189.066 221.568C191.054 220.586 193.13 219.95 195.201 219.167C197.233 218.399 199.146 217.428 201.266 216.87C202.162 216.634 203.298 216.787 204.22 216.662C205.785 216.45 207.319 215.753 208.851 215.609C214.562 215.071 220.523 215.28 226.259 215.28C227.591 215.28 229.085 215.823 230.419 216.144C232.53 216.651 234.955 216.986 236.956 217.768C237.76 218.082 239.842 218.986 240.242 219.634C240.581 220.182 241.731 221.81 240.329 221.81C239.238 221.81 237.912 222.598 236.746 222.726C234.606 222.961 232.515 223.543 230.384 223.693C228.683 223.813 226.7 223.823 225.106 224.436C224.647 224.612 224.151 224.92 223.655 224.92C222.596 224.92 221.563 225.099 220.666 225.542" stroke="white" stroke-width="2" stroke-linecap="round"/>
<path d="M215.318 215.28C215.318 216.737 216.302 218.035 216.961 219.288C218.205 221.656 219.888 224.253 221.61 226.319C223.546 228.642 225.236 232.225 226.329 235.06C227.418 237.885 228.873 240.378 229.86 243.197C230.441 244.857 231.767 246.331 232.307 247.93" stroke="white" stroke-width="2" stroke-linecap="round"/>
<path d="M199.588 216.524C204.232 209.429 211.437 204.512 218.464 199.975C222.034 197.669 225.168 193.044 227.308 189.42C230.318 184.319 233.085 179.104 235.016 173.492C236.174 170.124 237.473 166.481 239.053 163.283C240.072 161.22 241.231 159.524 242.059 157.34C244.894 149.868 246.551 141.64 247.075 133.604C247.319 129.87 247.644 125.828 245.59 122.617C242.86 118.35 241.182 113.238 238.109 109.246C235.777 106.217 234.238 102.734 232.009 99.6242C229.908 96.6924 227.447 94.6524 224.756 92.2996C219.611 87.801 213.929 83.841 208.362 79.8789C200.773 74.479 193.38 69.2331 185.063 64.9361C183.162 63.9536 181.078 63.319 179.121 62.4485C177.556 61.7527 176.094 61.0064 174.576 60.2891C173.377 59.7221 172.131 58.9612 171.116 58.1125C170.187 57.3359 169.035 57.2351 168.127 56.385C166.657 55.0086 164.624 54.4815 163.233 52.9818C162.258 51.9302 160.305 51.1838 159.633 49.855" stroke="white" stroke-width="2" stroke-linecap="round"/>
<path d="M159.947 50.7878C162.195 54.9838 165.981 58.8131 167.638 63.2776C169.006 66.9662 169.792 70.9767 171.273 74.5928C172.759 78.2203 172.653 83.0017 173.335 86.858C174.118 91.2779 174.57 95.6785 174.978 100.16C175.573 106.688 175.363 113.253 175.363 119.801C175.363 125.628 175.539 131.478 175.363 137.301C175.219 142.069 174.223 146.822 174.087 151.605C173.882 158.792 173.564 165.974 173.475 173.164C173.408 178.642 173.161 184.108 173.161 189.592C173.161 193.866 172.386 197.99 172.217 202.22C171.997 207.731 171.588 213.169 171.588 218.701C171.588 222.235 170.958 225.71 170.958 229.273C170.958 230.258 170.958 231.242 170.958 232.227C170.958 234.532 170.836 233.118 170.329 231.45" stroke="white" stroke-width="2" stroke-linecap="round"/>
<path d="M170.329 233.626C170.329 235.318 170.512 237.98 168.442 237.98C165.38 237.98 162.464 237.854 159.423 237.53C155.441 237.107 151.433 236.204 147.433 236.114C145.901 236.079 144.261 235.338 142.679 235.164C141.726 235.059 140.794 234.361 139.848 234.127C138.646 233.83 137.34 233.687 136.107 233.626C135.239 233.583 130.781 231.976 130.392 233.194C129.699 235.362 127.059 237.678 124.956 238.601C121.259 240.226 117.351 241.337 113.595 242.799C111.186 243.737 108.479 244.341 105.905 244.751C103.097 245.199 100.212 246.628 97.5156 247.584C95.1746 248.415 92.6239 248.361 90.2622 248.88C88.5925 249.247 87.1998 250.107 85.3858 250.107" stroke="white" stroke-width="2" stroke-linecap="round"/>
<path d="M129.43 233.004C132.656 225.868 138.862 220.324 142.749 213.553C144.028 211.324 145.016 208.945 145.79 206.505C146.447 204.434 147.707 202.535 148.621 200.562C150.654 196.175 152.46 191.765 154.354 187.329C157.532 179.887 161.922 172.681 164.457 165.01C167.895 154.602 168.985 143.469 170.958 132.74C171.788 128.231 171.696 123.422 172.147 118.851C172.543 114.843 172.217 110.667 172.217 106.638C172.217 100.289 172.237 93.9867 171.605 87.739C171.38 85.5188 170.876 83.5671 170.364 81.4164C170.15 80.5175 170.121 79.5195 169.997 78.6006C169.874 77.6854 169.289 76.9756 169.106 76.113C168.904 75.1667 168.861 74.1248 168.739 73.1589C168.639 72.3729 167.921 71.8894 167.83 71.1205C167.605 69.228 167.069 67.437 166.571 65.5925C166.191 64.1843 166.434 62.1332 165.61 60.911C164.489 59.2492 164.2 57.0935 163.093 55.4521" stroke="white" stroke-width="2" stroke-linecap="round"/>
<path d="M161.206 52.6535C164.802 55.723 167.859 59.2591 171.658 62.172C176.351 65.7711 181.329 68.8932 185.885 72.6925C189.421 75.641 192.876 78.5024 195.97 81.9001C198.282 84.4394 199.715 87.6137 201.615 90.4857C204.047 94.1618 206.622 97.723 209.201 101.317C213.015 106.634 216.021 112.325 219.373 117.918C222.467 123.081 225.538 128.588 227.57 134.278C232.502 148.09 234.97 162.975 230.891 177.31C229.181 183.319 226.893 189.29 224.127 194.758" stroke="white" stroke-width="2" stroke-linecap="round"/>
<path d="M160.262 49.5441C165.2 51.4335 170.1 53.2671 175.118 55.003C181.462 57.1975 187.795 58.8133 193.96 61.4984C196.305 62.5199 199.131 63.0226 201.23 64.5215C204.17 66.6195 207.539 67.9686 210.476 70.1013C213.058 71.9762 215.519 74.0349 218.114 75.8711C221.126 78.0019 224.406 79.7652 227.011 82.4011C231.917 87.3657 237.582 91.4507 242.549 96.3593C244.117 97.9093 245.411 99.7704 246.778 101.49C248.25 103.342 249.975 105.297 251.288 107.243C253.498 110.519 255.968 113.637 258.261 116.865C260.617 120.181 262.119 123.768 263.907 127.385C265.651 130.914 268.108 134.052 268.958 137.975C270.646 145.762 270.881 153.756 271.003 161.693C271.054 165.019 271.725 168.316 271.615 171.644C271.487 175.496 270.25 179.488 269.045 183.149C267.95 186.476 266.143 189.57 264.868 192.857C263.787 195.645 262.803 198.416 261.74 201.218C259.845 206.212 256.305 209.804 252.686 213.656C251.783 214.618 251.168 215.84 249.924 216.455C248.216 217.299 245.691 218.497 244.401 219.772C243.172 220.987 241.853 221.358 240.172 221.655C239.44 221.784 238.18 222.098 237.585 221.568C237.198 221.224 236.206 220.661 237.026 220.255" stroke="white" stroke-width="2" stroke-linecap="round"/>
<path d="M175.358 116.462C175.358 121.085 176.816 128.489 178.387 132.792C181.133 140.315 184.746 147.482 187.388 155.025C188.972 159.549 191.468 163.561 193.453 167.878C195.036 171.32 196.765 174.713 198.364 178.139C200.053 181.754 201.968 185.272 203.748 188.85C205.401 192.174 207.101 195.323 209.148 198.437C210.222 200.07 211.867 201.937 212.487 203.775" stroke="white" stroke-width="2" stroke-linecap="round"/>
<path d="M175.363 124.483C175.363 126.715 175.908 129.295 176.482 131.427C177.921 136.778 179.124 142.321 181.026 147.528C181.985 150.152 182.427 152.351 182.634 155.111C182.964 159.52 184.232 163.704 184.731 168.05C184.999 170.379 185.72 172.611 186.025 174.943C186.328 177.263 186.06 179.75 186.06 182.078C186.06 187.65 186.779 193.293 186.304 198.869C185.924 203.334 185.745 207.681 185.745 212.171C185.745 215.44 184.789 218.554 184.417 221.776C183.96 225.726 183.307 229.589 182.844 233.557C182.642 235.288 182.383 237.37 183.386 238.912C183.653 239.324 184.172 240.252 184.172 240.156" stroke="white" stroke-width="2" stroke-linecap="round"/>
<path d="M75.633 116.087C74.2591 117.198 73.7464 120.602 73.0987 122.203C71.8249 125.35 70.649 128.75 69.9876 132.084C69.3327 135.385 68.1142 138.545 67.2959 141.81C66.3485 145.59 65.6732 149.501 64.4645 153.211C62.872 158.099 61.1286 163.209 60.1998 168.258C59.0961 174.258 56.1897 179.897 54.6942 185.809C52.8273 193.19 51.4678 200.697 49.0313 207.921C47.7689 211.664 47.605 215.626 46.13 219.323C45.2808 221.451 44.0296 223.275 43.0538 225.334C42.522 226.457 41.6327 227.481 41.271 228.651C40.7314 230.397 39.8524 232.01 39.1387 233.695C38.6251 234.908 38.2005 236.122 37.5657 237.22C37.1585 237.924 37.1227 237.533 37.4433 237.392C39.0967 236.666 42.5098 237.646 44.1899 237.824C48.1792 238.247 52.6062 237.649 56.4595 238.602C57.8966 238.957 59.232 239.403 60.7242 239.534C61.8728 239.635 63.2478 239.597 64.3421 240.018C69.2758 241.914 74.4937 242.333 79.7229 242.333" stroke="white" stroke-width="2" stroke-linecap="round"/>
</svg>
