<svg width="204" height="114" viewBox="0 0 204 114" fill="none" xmlns="http://www.w3.org/2000/svg">
<g filter="url(#filter0_b_551_2860)">
<path fill-rule="evenodd" clip-rule="evenodd" d="M56.6667 31.4485C42.7391 31.4485 31.4485 42.7391 31.4485 56.6667C31.4485 70.5943 42.7391 81.8848 56.6667 81.8848C70.5943 81.8848 81.8848 70.5943 81.8848 56.6667C81.8848 42.7391 70.5943 31.4485 56.6667 31.4485ZM0 56.6667C0 25.3705 25.3705 0 56.6667 0C87.9628 0 113.333 25.3705 113.333 56.6667C113.333 87.9628 87.9628 113.333 56.6667 113.333C25.3705 113.333 0 87.9628 0 56.6667Z" fill="url(#paint0_radial_551_2860)"/>
</g>
<g filter="url(#filter1_b_551_2860)">
<path fill-rule="evenodd" clip-rule="evenodd" d="M147.333 31.4485C133.406 31.4485 122.115 42.7391 122.115 56.6667C122.115 70.5943 133.406 81.8848 147.333 81.8848C161.261 81.8848 172.551 70.5943 172.551 56.6667C172.551 42.7391 161.261 31.4485 147.333 31.4485ZM90.6667 56.6667C90.6667 25.3705 116.037 0 147.333 0C178.629 0 204 25.3705 204 56.6667C204 87.9628 178.629 113.333 147.333 113.333C116.037 113.333 90.6667 87.9628 90.6667 56.6667Z" fill="url(#paint1_linear_551_2860)" fill-opacity="0.5"/>
</g>
<defs>
<filter id="filter0_b_551_2860" x="-42" y="-42" width="197.333" height="197.333" filterUnits="userSpaceOnUse" color-interpolation-filters="sRGB">
<feFlood flood-opacity="0" result="BackgroundImageFix"/>
<feGaussianBlur in="BackgroundImage" stdDeviation="21"/>
<feComposite in2="SourceAlpha" operator="in" result="effect1_backgroundBlur_551_2860"/>
<feBlend mode="normal" in="SourceGraphic" in2="effect1_backgroundBlur_551_2860" result="shape"/>
</filter>
<filter id="filter1_b_551_2860" x="70.6667" y="-20" width="153.333" height="153.333" filterUnits="userSpaceOnUse" color-interpolation-filters="sRGB">
<feFlood flood-opacity="0" result="BackgroundImageFix"/>
<feGaussianBlur in="BackgroundImage" stdDeviation="10"/>
<feComposite in2="SourceAlpha" operator="in" result="effect1_backgroundBlur_551_2860"/>
<feBlend mode="normal" in="SourceGraphic" in2="effect1_backgroundBlur_551_2860" result="shape"/>
</filter>
<radialGradient id="paint0_radial_551_2860" cx="0" cy="0" r="1" gradientUnits="userSpaceOnUse" gradientTransform="translate(-26.4049 1.7801) rotate(42.8481) scale(173.197)">
<stop stop-color="#290578"/>
<stop offset="1" stop-color="#05669D"/>
</radialGradient>
<linearGradient id="paint1_linear_551_2860" x1="183.529" y1="2.37347" x2="110.248" y2="109.476" gradientUnits="userSpaceOnUse">
<stop stop-color="#72EDFF"/>
<stop offset="1" stop-color="#0070FF"/>
</linearGradient>
</defs>
</svg>
