<svg width="204" height="113" viewBox="0 0 204 113" fill="none" xmlns="http://www.w3.org/2000/svg">
    <g filter="url(#filter0_b_1676_6178)">
        <path fill-rule="evenodd" clip-rule="evenodd"
              d="M56.5 31.356C42.6134 31.356 31.356 42.6134 31.356 56.5C31.356 70.3866 42.6134 81.644 56.5 81.644C70.3866 81.644 81.644 70.3866 81.644 56.5C81.644 42.6134 70.3866 31.356 56.5 31.356ZM0 56.5C0 25.2959 25.2959 0 56.5 0C87.7041 0 113 25.2959 113 56.5C113 87.7041 87.7041 113 56.5 113C25.2959 113 0 87.7041 0 56.5Z"
              fill="url(#paint0_radial_1676_6178)"/>
    </g>
    <g filter="url(#filter1_b_1676_6178)">
        <path fill-rule="evenodd" clip-rule="evenodd"
              d="M146.9 31.356C133.014 31.356 121.756 42.6134 121.756 56.5C121.756 70.3866 133.014 81.644 146.9 81.644C160.787 81.644 172.044 70.3866 172.044 56.5C172.044 42.6134 160.787 31.356 146.9 31.356ZM90.4001 56.5C90.4001 25.2959 115.696 0 146.9 0C178.104 0 203.4 25.2959 203.4 56.5C203.4 87.7041 178.104 113 146.9 113C115.696 113 90.4001 87.7041 90.4001 56.5Z"
              fill="url(#paint1_linear_1676_6178)" fill-opacity="0.5"/>
    </g>
    <defs>
        <filter id="filter0_b_1676_6178" x="-42" y="-42" width="197" height="197" filterUnits="userSpaceOnUse"
                color-interpolation-filters="sRGB">
            <feFlood flood-opacity="0" result="BackgroundImageFix"/>
            <feGaussianBlur in="BackgroundImage" stdDeviation="21"/>
            <feComposite in2="SourceAlpha" operator="in" result="effect1_backgroundBlur_1676_6178"/>
            <feBlend mode="normal" in="SourceGraphic" in2="effect1_backgroundBlur_1676_6178" result="shape"/>
        </filter>
        <filter id="filter1_b_1676_6178" x="70.4001" y="-20" width="153" height="153" filterUnits="userSpaceOnUse"
                color-interpolation-filters="sRGB">
            <feFlood flood-opacity="0" result="BackgroundImageFix"/>
            <feGaussianBlur in="BackgroundImage" stdDeviation="10"/>
            <feComposite in2="SourceAlpha" operator="in" result="effect1_backgroundBlur_1676_6178"/>
            <feBlend mode="normal" in="SourceGraphic" in2="effect1_backgroundBlur_1676_6178" result="shape"/>
        </filter>
        <radialGradient id="paint0_radial_1676_6178" cx="0" cy="0" r="1" gradientUnits="userSpaceOnUse"
                        gradientTransform="translate(-26.3272 1.77486) rotate(42.8481) scale(172.687)">
            <stop stop-color="#290578"/>
            <stop offset="1" stop-color="#05669D"/>
        </radialGradient>
        <linearGradient id="paint1_linear_1676_6178" x1="182.989" y1="2.36649" x2="109.924" y2="109.154"
                        gradientUnits="userSpaceOnUse">
            <stop stop-color="#72EDFF"/>
            <stop offset="1" stop-color="#0070FF"/>
        </linearGradient>
    </defs>
</svg>
