<svg width="163" height="48" viewBox="0 0 163 48" fill="none" xmlns="http://www.w3.org/2000/svg">
<g clip-path="url(#clip0_966_1730)">
<g clip-path="url(#clip1_966_1730)">
<path d="M155.626 47.8805H6.70372C3.42743 47.8805 0.746826 45.1939 0.746826 41.9103V6.08945C0.746826 2.80587 3.42743 0.119297 6.70372 0.119297H155.626C158.902 0.119297 161.583 2.80587 161.583 6.08945V41.9103C161.583 45.1939 158.902 47.8805 155.626 47.8805Z" fill="white"/>
<path d="M25.3091 23.1923L12.6254 36.6845C12.6258 36.6873 12.6268 36.6896 12.6273 36.6924C13.0162 38.1574 14.3514 39.2362 15.936 39.2362C16.5694 39.2362 17.1642 39.0646 17.6742 38.7633L17.7147 38.7395L31.9918 30.4827L25.3091 23.1923Z" fill="black"/>
<path d="M25.3091 23.1923L12.6254 36.6845C12.6258 36.6873 12.6268 36.6896 12.6273 36.6924C13.0162 38.1574 14.3514 39.2362 15.936 39.2362C16.5694 39.2362 17.1642 39.0646 17.6742 38.7633L17.7147 38.7395L31.9918 30.4827L25.3091 23.1923" stroke="white" stroke-width="0.73825"/>
<path d="M38.1413 20.8949L38.1292 20.8866L31.9654 17.3054L25.0211 23.4985L31.9896 30.4814L38.1208 26.9359C39.1958 26.3543 39.9255 25.2185 39.9255 23.9088C39.9255 22.6086 39.2056 21.4784 38.1413 20.8949Z" fill="black"/>
<path d="M38.1413 20.8949L38.1292 20.8866L31.9654 17.3054L25.0211 23.4985L31.9896 30.4814L38.1208 26.9359C39.1958 26.3543 39.9255 25.2185 39.9255 23.9088C39.9255 22.6086 39.2056 21.4784 38.1413 20.8949" stroke="white" stroke-width="0.73825"/>
<path d="M12.6249 11.0769C12.5486 11.3587 12.5085 11.6539 12.5085 11.9604V35.8017C12.5085 36.1076 12.5481 36.4038 12.6253 36.6846L25.7456 23.5375L12.6249 11.0769Z" fill="black" stroke="white" stroke-width="0.73825"/>
<path d="M25.4026 23.8807L31.9676 17.303L17.7067 9.01639C17.1883 8.70524 16.5834 8.52566 15.936 8.52566C14.3514 8.52566 13.0144 9.60635 12.6254 11.0732C12.6249 11.0746 12.6249 11.0756 12.6249 11.0769L25.4026 23.8807Z" fill="black" stroke="white" stroke-width="0.73825"/>
</g>
<path d="M57.5814 12.35C57.5814 13.3504 57.2858 14.1471 56.6938 14.7413C56.0214 15.448 55.145 15.8015 54.0676 15.8015C53.0359 15.8015 52.1587 15.4433 51.4373 14.7259C50.7146 14.009 50.354 13.1201 50.354 12.0594C50.354 10.9983 50.7146 10.1098 51.4373 9.39244C52.1587 8.67554 53.0359 8.31685 54.0676 8.31685C54.5796 8.31685 55.0697 8.41715 55.5351 8.61727C56.0004 8.81787 56.3737 9.08414 56.6529 9.41763L56.0246 10.0477C55.5514 9.48103 54.8998 9.19793 54.0676 9.19793C53.3152 9.19793 52.6646 9.46289 52.1155 9.99315C51.5662 10.524 51.2917 11.2124 51.2917 12.0594C51.2917 12.9065 51.5662 13.5948 52.1155 14.1257C52.6646 14.656 53.3152 14.9209 54.0676 14.9209C54.8659 14.9209 55.5314 14.6545 56.0642 14.121C56.41 13.7735 56.6101 13.2903 56.6635 12.6699H54.0676V11.8094H57.5316C57.5651 11.9965 57.5814 12.1761 57.5814 12.35Z" fill="black"/>
<path d="M57.5815 12.3503H57.4624C57.4614 13.3278 57.1766 14.0871 56.6097 14.6571L56.6084 14.6581L56.6079 14.6591C55.9568 15.3413 55.12 15.6809 54.0678 15.6823C53.0636 15.6809 52.223 15.3376 51.5212 14.6417C50.8209 13.9444 50.4746 13.0932 50.4733 12.0596C50.4746 11.0256 50.8209 10.1749 51.5212 9.47804C52.223 8.78168 53.0636 8.43792 54.0678 8.43648C54.5643 8.43648 55.0372 8.53356 55.4881 8.72711C55.9395 8.9221 56.2961 9.17762 56.5618 9.49487L56.6531 9.41786L56.5688 9.33344L55.9405 9.96401L56.0247 10.0479L56.1165 9.97153C55.6212 9.37678 54.926 9.07696 54.0678 9.07875C53.2874 9.0778 52.6009 9.3572 52.0331 9.90765C51.4598 10.4599 51.1718 11.1869 51.1727 12.0596C51.1718 12.9324 51.4598 13.6594 52.0331 14.2116C52.6009 14.7621 53.2874 15.0415 54.0678 15.0405C54.8924 15.042 55.5952 14.7616 56.1485 14.2057C56.5181 13.8343 56.7275 13.3199 56.7824 12.6804L56.7935 12.5508H54.1869V11.929H57.5317V11.8096L57.4144 11.8306C57.447 12.0116 57.4624 12.1837 57.4624 12.3503H57.5815H57.7006C57.7006 12.1688 57.6838 11.9823 57.6489 11.7882L57.6313 11.6902H53.9486V12.6702V12.7896H56.6637V12.6702L56.545 12.6599C56.4925 13.2607 56.3016 13.7131 55.9801 14.0368C55.4681 14.548 54.8399 14.8003 54.0678 14.8017C53.3432 14.8008 52.7284 14.5508 52.1984 14.0401C51.6735 13.5312 51.4123 12.8815 51.411 12.0596C51.4123 11.2378 51.6735 10.5881 52.1984 10.0792C52.7284 9.56854 53.3432 9.31851 54.0678 9.31756C54.8734 9.31947 55.4817 9.58622 55.9336 10.125L56.0173 10.2248L56.7373 9.50228L56.8145 9.4249L56.7442 9.34132C56.4515 8.99159 56.0615 8.71398 55.5821 8.50789C55.1019 8.3012 54.5951 8.19768 54.0678 8.19768C53.0086 8.19672 52.0946 8.56986 51.3532 9.30825C50.6091 10.0452 50.234 10.9715 50.235 12.0596C50.234 13.1473 50.6091 14.0741 51.3537 14.8115C52.0946 15.5494 53.0086 15.9221 54.0678 15.9211C55.1707 15.9221 56.0857 15.5549 56.7801 14.8241L56.6939 14.7416L56.7782 14.826C57.3953 14.2079 57.7015 13.3731 57.7006 12.3503H57.5815Z" fill="black"/>
<path d="M63.0731 9.35766H59.8177V11.6292H62.7534V12.4901H59.8177V14.7616H63.0731V15.6417H58.9V8.47754H63.0731V9.35766Z" fill="black"/>
<path d="M63.0732 9.35764V9.23824H59.6987V11.7486H62.6344V12.3703L59.6987 12.3707V14.881H62.954V15.5223H59.0193V8.59693H62.954V9.35764H63.0732V9.23824V9.35764H63.1923V8.47752V8.35812H58.781V15.7611H63.1923V14.7616V14.6422H59.937V12.6095H62.8727V11.6292V11.5098H59.937V9.47705H63.1923V9.35764H63.0732Z" fill="black"/>
<path d="M66.9464 15.6417H66.0273V9.35766H64.0308V8.47754H68.9429V9.35766H66.9464V15.6417Z" fill="black"/>
<path d="M66.9461 15.6417V15.5223H66.146V9.23824H64.1495V8.59693H68.8234V9.23824H66.8269V15.6417H66.9461V15.5223V15.6417H67.0652V9.47705H69.0617V8.47752V8.35812H63.9113V9.35764V9.47705H65.9078V15.7611H66.9461H67.0652V15.6417H66.9461Z" fill="black"/>
<path d="M72.4965 15.6417V8.47754H73.4147V15.6417H72.4965Z" fill="black"/>
<path d="M72.4966 15.6417H72.6157V8.59693H73.2956V15.5223H72.4966V15.6417H72.6157H72.4966V15.7611H73.4148H73.5339V8.35812H72.4966H72.3774V15.7611H72.4966V15.6417Z" fill="black"/>
<path d="M77.4896 15.6417H76.5705V9.35766H74.5741V8.47754H79.4862V9.35766H77.4896V15.6417Z" fill="black"/>
<path d="M77.4893 15.6417V15.5223H76.6893V9.23824H74.6929V8.59693H79.3666V9.23824H77.3701V15.6417H77.4893V15.5223V15.6417H77.6084V9.47705H79.6049V8.47752V8.35812H74.4546V9.35764V9.47705H76.451V15.7611H77.4893H77.6084V15.6417H77.4893Z" fill="black"/>
<path d="M84.2217 14.1159C84.7508 14.6527 85.3981 14.9209 86.1637 14.9209C86.9293 14.9209 87.5771 14.6527 88.1053 14.1159C88.6349 13.5791 88.9002 12.8929 88.9002 12.0594C88.9002 11.226 88.6349 10.5398 88.1053 10.0029C87.5771 9.46611 86.9293 9.19793 86.1637 9.19793C85.3981 9.19793 84.7508 9.46611 84.2217 10.0029C83.6934 10.5398 83.4282 11.226 83.4282 12.0594C83.4282 12.8929 83.6934 13.5791 84.2217 14.1159ZM88.7848 14.7157C88.082 15.44 87.208 15.8015 86.1637 15.8015C85.1184 15.8015 84.2449 15.44 83.5437 14.7157C82.8404 13.9922 82.4905 13.1066 82.4905 12.0594C82.4905 11.0123 82.8404 10.1265 83.5437 9.40318C84.2449 8.67876 85.1184 8.31685 86.1637 8.31685C87.2025 8.31685 88.0741 8.68068 88.7801 9.40784C89.4852 10.135 89.8379 11.0188 89.8379 12.0594C89.8379 13.1066 89.486 13.9922 88.7848 14.7157Z" fill="black"/>
<path d="M84.2213 14.1161L84.1366 14.2001C84.6853 14.7584 85.3699 15.042 86.1634 15.0405C86.9564 15.042 87.6419 14.7584 88.1897 14.2001C88.742 13.6413 89.0198 12.9183 89.019 12.0596C89.0198 11.201 88.742 10.478 88.1897 9.91923C87.6419 9.3609 86.9564 9.07732 86.1634 9.07875C85.3699 9.07732 84.6853 9.3609 84.1366 9.91923C83.5856 10.478 83.3073 11.201 83.3087 12.0596C83.3073 12.9183 83.5856 13.6413 84.1366 14.2001L84.2213 14.1161L84.306 14.0322C83.8006 13.5167 83.5479 12.8684 83.547 12.0596C83.5479 11.2509 83.8006 10.6026 84.306 10.0871C84.816 9.57177 85.4252 9.31899 86.1634 9.31756C86.901 9.31899 87.5115 9.57177 88.0203 10.0871C88.5266 10.6026 88.7793 11.2509 88.7802 12.0596C88.7793 12.8684 88.5266 13.5167 88.0203 14.0322C87.5115 14.5475 86.901 14.8003 86.1634 14.8017C85.4252 14.8003 84.816 14.5475 84.306 14.0322L84.2213 14.1161ZM88.7844 14.7159L88.6992 14.6329C88.0161 15.3344 87.1807 15.6809 86.1634 15.6823C85.1456 15.6809 84.3102 15.3344 83.6284 14.6329L83.6251 14.6292L83.6284 14.6329C82.9466 13.929 82.6102 13.0802 82.6092 12.0596C82.6102 11.0391 82.9466 10.1903 83.6284 9.48639C84.3102 8.7849 85.1456 8.43792 86.1634 8.43648C87.1741 8.43792 88.0076 8.78633 88.6946 9.49153C89.3787 10.1986 89.717 11.0462 89.7185 12.0596C89.717 13.0802 89.3796 13.929 88.6992 14.6329L88.7844 14.7159L88.8701 14.7989C89.5923 14.0555 89.9576 13.1333 89.9567 12.0596C89.9576 10.9921 89.5909 10.0718 88.8653 9.32508C88.1394 8.57547 87.23 8.19636 86.1634 8.19768C85.0911 8.19636 84.179 8.57368 83.4576 9.32042V9.31995C82.734 10.0638 82.37 10.986 82.371 12.0596C82.37 13.1333 82.734 14.0555 83.4576 14.7994L83.4608 14.8027L83.4576 14.7989C84.179 15.5456 85.0911 15.9221 86.1634 15.9211C87.2351 15.9221 88.1473 15.5456 88.8701 14.7989L88.7844 14.7159Z" fill="black"/>
<path d="M91.127 15.6417V8.47754H92.2448L95.7189 14.0508H95.7584L95.7189 12.6701V8.47754H96.638V15.6417H95.6793L92.0447 9.79838H92.0051L92.0447 11.1795V15.6417H91.127Z" fill="black"/>
<path d="M91.1271 15.6417H91.2462V8.59693H92.1788L95.6529 14.1702H95.7586H95.8809L95.8381 12.6683V8.59693H96.519V15.5223H95.7456L92.1109 9.67896H92.0052H91.8829L91.9256 11.1814V15.5223H91.1271V15.6417H91.2462H91.1271V15.7611H92.0448H92.1639V11.1776L92.1244 9.79514L92.0052 9.79836V9.91776H92.0448V9.79836L91.9438 9.86188L95.6133 15.7611H96.6382H96.7573V8.35812H95.719H95.5999V12.6716L95.6394 14.054L95.7586 14.0508V13.9314H95.719V14.0508L95.82 13.9874L92.3109 8.35812H91.1271H91.0079V15.7611H91.1271V15.6417Z" fill="black"/>
<path d="M128.489 35.9403H130.712V21.0135H128.489V35.9403ZM148.512 26.3904L145.964 32.8619H145.888L143.243 26.3904H140.848L144.814 35.4356L142.553 40.4668H144.873L150.984 26.3904H148.512ZM135.905 34.2449C135.176 34.2449 134.161 33.8801 134.161 32.9772C134.161 31.825 135.426 31.3834 136.517 31.3834C137.496 31.3834 137.954 31.5946 138.549 31.883C138.376 33.2654 137.188 34.2449 135.905 34.2449ZM136.173 26.0638C134.564 26.0638 132.897 26.7747 132.207 28.3493L134.18 29.1749C134.602 28.3493 135.387 28.0802 136.211 28.0802C137.361 28.0802 138.53 28.7719 138.549 30.0009V30.1544C138.146 29.9239 137.285 29.5784 136.23 29.5784C134.104 29.5784 131.938 30.7495 131.938 32.9388C131.938 34.9361 133.682 36.2229 135.636 36.2229C137.131 36.2229 137.954 35.5508 138.473 34.7636H138.549V35.9156H140.694V30.1926C140.694 27.5429 138.722 26.0638 136.173 26.0638ZM122.434 28.2075H119.272V23.091H122.434C124.096 23.091 125.04 24.4701 125.04 25.6492C125.04 26.8059 124.096 28.2075 122.434 28.2075ZM122.377 21.0135H117.05V35.9403H119.272V30.285H122.377C124.841 30.285 127.263 28.4972 127.263 25.6492C127.263 22.8013 124.841 21.0135 122.377 21.0135ZM93.33 34.2476C91.7942 34.2476 90.5083 32.9589 90.5083 31.1889C90.5083 29.4002 91.7942 28.0919 93.33 28.0919C94.8462 28.0919 96.0362 29.4002 96.0362 31.1889C96.0362 32.9589 94.8462 34.2476 93.33 34.2476ZM95.8826 27.2262H95.8058C95.3069 26.6301 94.3468 26.0914 93.1378 26.0914C90.6042 26.0914 88.282 28.3227 88.282 31.1889C88.282 34.0359 90.6042 36.2481 93.1378 36.2481C94.3468 36.2481 95.3069 35.7093 95.8058 35.0942H95.8826V35.825C95.8826 37.7682 94.8462 38.8069 93.1764 38.8069C91.8137 38.8069 90.9691 37.8255 90.6233 36.9985L88.685 37.8064C89.2416 39.1529 90.7197 40.8074 93.1764 40.8074C95.7867 40.8074 97.994 39.2681 97.994 35.5172V26.3993H95.8826V27.2262ZM99.5293 35.9403H101.756V21.013H99.5293V35.9403ZM105.038 31.0158C104.98 29.0536 106.554 28.0536 107.687 28.0536C108.57 28.0536 109.318 28.4957 109.567 29.1311L105.038 31.0158ZM111.948 29.3232C111.526 28.1879 110.239 26.0914 107.61 26.0914C104.999 26.0914 102.831 28.1497 102.831 31.1698C102.831 34.0168 104.98 36.2481 107.859 36.2481C110.182 36.2481 111.526 34.8246 112.082 33.9976L110.355 32.8432C109.779 33.6898 108.992 34.2476 107.859 34.2476C106.727 34.2476 105.921 33.7281 105.402 32.7089L112.178 29.9001L111.948 29.3232ZM57.9684 27.6496V29.804H63.1122C62.9586 31.0158 62.5556 31.9006 61.9413 32.5163C61.193 33.2667 60.0221 34.0937 57.9684 34.0937C54.8013 34.0937 52.3255 31.5354 52.3255 28.3614C52.3255 25.1874 54.8013 22.6287 57.9684 22.6287C59.6767 22.6287 60.924 23.3022 61.8454 24.1678L63.3616 22.6483C62.0758 21.4169 60.3674 20.4744 57.9684 20.4744C53.6305 20.4744 49.9838 24.0139 49.9838 28.3614C49.9838 32.7089 53.6305 36.2481 57.9684 36.2481C60.3102 36.2481 62.0758 35.479 63.4576 34.0359C64.8779 32.6124 65.3196 30.6119 65.3196 28.9963C65.3196 28.4957 65.2813 28.0345 65.2041 27.6496H57.9684ZM71.1676 34.2476C69.6318 34.2476 68.3073 32.978 68.3073 31.1698C68.3073 29.3423 69.6318 28.0919 71.1676 28.0919C72.7028 28.0919 74.0272 29.3423 74.0272 31.1698C74.0272 32.978 72.7028 34.2476 71.1676 34.2476ZM71.1676 26.0914C68.365 26.0914 66.0809 28.2266 66.0809 31.1698C66.0809 34.0937 68.365 36.2481 71.1676 36.2481C73.9696 36.2481 76.2537 34.0937 76.2537 31.1698C76.2537 28.2266 73.9696 26.0914 71.1676 26.0914ZM82.2631 34.2476C80.7279 34.2476 79.4033 32.978 79.4033 31.1698C79.4033 29.3423 80.7279 28.0919 82.2631 28.0919C83.7985 28.0919 85.1229 29.3423 85.1229 31.1698C85.1229 32.978 83.7985 34.2476 82.2631 34.2476ZM82.2631 26.0914C79.4606 26.0914 77.177 28.2266 77.177 31.1698C77.177 34.0937 79.4606 36.2481 82.2631 36.2481C85.0652 36.2481 87.3494 34.0937 87.3494 31.1698C87.3494 28.2266 85.0652 26.0914 82.2631 26.0914Z" fill="black"/>
</g>
<defs>
<clipPath id="clip0_966_1730">
<rect width="161.194" height="48" fill="white" transform="translate(0.968018)"/>
</clipPath>
<clipPath id="clip1_966_1730">
<rect width="161.194" height="48" fill="white" transform="translate(0.627686 -0.00012207)"/>
</clipPath>
</defs>
</svg>
