<svg width="24" height="24" viewBox="0 0 24 24" fill="none" xmlns="http://www.w3.org/2000/svg">
<g clip-path="url(#clip0_3364_1684)">
<path fill-rule="evenodd" clip-rule="evenodd" d="M4.59615 6.69129C4.12247 6.66396 3.667 6.52732 3.26619 6.31781C2.4919 5.89878 2 5.1336 2 4.33198C2 3.667 2.30972 3.04757 2.82895 2.61943C3.33907 2.21862 4.00405 2 4.76012 2C6.28137 2 7.43825 2.96559 7.51113 4.29554C7.51113 4.82388 7.33805 5.334 7.01923 5.73481C6.76416 6.05364 6.4089 6.3087 5.99898 6.47267C5.6255 6.62753 5.21558 6.7004 4.79656 6.7004C4.76467 6.7004 4.73051 6.69812 4.69635 6.69585C4.66219 6.69357 4.62803 6.69129 4.59615 6.69129ZM4.75101 3.47571C4.3502 3.47571 3.99494 3.57591 3.7581 3.7672C3.57591 3.92206 3.48482 4.10425 3.47571 4.32287C3.47571 4.86032 3.98583 5.21558 4.75101 5.21558C5.28846 5.21558 5.58906 5.05162 5.75303 4.91498C5.93522 4.76012 6.02631 4.57793 6.02631 4.33198C5.98987 3.79453 5.5253 3.47571 4.75101 3.47571ZM7.30161 7.04657C7.15587 6.90082 6.96457 6.82795 6.77327 6.82795H2.74696C2.54656 6.82795 2.36437 6.90082 2.21862 7.04657C2.07287 7.18321 2 7.37451 2 7.57491V19.253C2 19.4534 2.07287 19.6356 2.21862 19.7814C2.35526 19.918 2.54656 20 2.74696 20H6.77327C6.97368 20 7.15587 19.918 7.30161 19.7814C7.43825 19.6447 7.52024 19.4534 7.52024 19.253V7.57491C7.52024 7.37451 7.44736 7.19232 7.30161 7.04657ZM6.02631 8.31277V18.497H3.48482V8.31277H6.02631ZM20.4281 8.29455C19.5627 7.34718 18.3329 6.82795 16.9757 6.82795C15.919 6.82795 15.0081 7.0739 14.1791 7.5658C14.1791 7.3654 14.0971 7.18321 13.9605 7.04657C13.8238 6.90993 13.6325 6.82795 13.4321 6.82795H9.41494C9.21454 6.82795 9.03235 6.90082 8.8866 7.04657C8.74085 7.18321 8.66798 7.37451 8.66798 7.57491V19.253C8.66798 19.4534 8.74085 19.6356 8.8866 19.7814C9.02324 19.918 9.21454 20 9.41494 20H13.4413C13.6417 20 13.8238 19.9271 13.9696 19.7814C14.1062 19.6447 14.1882 19.4534 14.1882 19.253V12.6124C14.1882 12.0111 14.6619 11.5466 15.254 11.5466C15.8461 11.5466 16.3198 12.0111 16.3198 12.6124V19.253C16.3198 19.4534 16.3927 19.6356 16.5384 19.7814C16.6751 19.918 16.8664 20 17.0668 20H21.0931C21.2935 20 21.4757 19.918 21.6214 19.7814C21.758 19.6447 21.84 19.4534 21.84 19.253V12.412C21.8309 10.7176 21.3481 9.29657 20.4281 8.29455ZM17.7682 12.3664C17.6406 11.0638 16.5384 10.0526 15.254 10.0526C13.8421 10.0526 12.6943 11.2004 12.6943 12.6124V18.5152H10.1528V8.31277H12.6943V9.0324C12.6943 9.18726 12.7398 9.33301 12.8218 9.45143C12.9038 9.57896 13.0313 9.67005 13.168 9.72471C13.3046 9.77936 13.4595 9.78847 13.6143 9.75204C13.7601 9.7156 13.8876 9.63362 13.9878 9.5243L13.9928 9.51918C14.0861 9.4236 15.1793 8.30366 16.9757 8.30366C17.923 8.30366 18.7429 8.64981 19.335 9.28746C20 10.0071 20.3461 11.082 20.3461 12.3846V18.4879H17.8046V12.5941C17.8046 12.5213 17.7955 12.4393 17.7682 12.3664Z" fill="#1D1D1D"/>
</g>
<defs>
<clipPath id="clip0_3364_1684">
<rect width="24" height="24" fill="white"/>
</clipPath>
</defs>
</svg>
