<svg width="98" height="122" viewBox="0 0 98 122" fill="none" xmlns="http://www.w3.org/2000/svg">
<path fill-rule="evenodd" clip-rule="evenodd" d="M4.68973 121.745C3.88898 122.229 2.84606 122.005 2.31966 121.235L0.303417 118.288C-0.222978 117.519 -0.0462185 116.476 0.692356 115.903C7.33313 110.752 12.7918 104.946 17.0847 98.7265C33.0693 75.5701 33.0693 46.4299 17.0847 23.2735C12.7918 17.0545 7.33313 11.248 0.692359 6.09654C-0.0462146 5.5236 -0.222974 4.4815 0.303421 3.71204L2.31967 0.764796C2.84607 -0.00466014 3.88899 -0.229032 4.68974 0.254903L94.2511 54.3816C99.2496 57.4024 99.2496 64.5976 94.2511 67.6185L4.68973 121.745Z" fill="url(#paint0_linear_5786_22806)"/>
<defs>
<linearGradient id="paint0_linear_5786_22806" x1="109.438" y1="62.0806" x2="-36.0411" y2="62.0807" gradientUnits="userSpaceOnUse">
<stop stop-color="white"/>
<stop offset="1" stop-color="white" stop-opacity="0.6"/>
</linearGradient>
</defs>
</svg>
