<svg width="79" height="99" viewBox="0 0 79 99" fill="none" xmlns="http://www.w3.org/2000/svg">
    <path fill-rule="evenodd" clip-rule="evenodd"
          d="M3.77287 98.7932C3.12867 99.1859 2.28965 99.0038 1.86616 98.3794L0.244098 95.9878C-0.179385 95.3634 -0.0371827 94.5177 0.556998 94.0528C5.89949 89.8725 10.2909 85.1607 13.7446 80.1142C26.6041 61.3233 26.6041 37.6767 13.7446 18.8858C10.2909 13.8393 5.89949 9.12751 0.557001 4.9472C-0.0371795 4.48227 -0.179382 3.63663 0.244102 3.01223L1.86617 0.620614C2.28965 -0.00378159 3.12868 -0.185854 3.77288 0.206847L75.8247 44.1293C79.846 46.5807 79.846 52.4194 75.8247 54.8707L3.77287 98.7932Z"
          fill="url(#paint0_linear_2494_16728)"/>
    <defs>
        <linearGradient id="paint0_linear_2494_16728" x1="88.0427" y1="50.3769" x2="-28.9949" y2="50.3769"
                        gradientUnits="userSpaceOnUse">
            <stop stop-color="#3568DD"/>
            <stop offset="1" stop-color="#3568DD" stop-opacity="0.66"/>
        </linearGradient>
    </defs>
</svg>
