<svg width="79" height="100" viewBox="0 0 79 100" fill="none" xmlns="http://www.w3.org/2000/svg">
<path fill-rule="evenodd" clip-rule="evenodd" d="M3.36075 98.9514C3.17205 99.0665 2.92627 99.0131 2.80222 98.8302L0.13241 94.8938C0.00836002 94.7109 0.0500712 94.4627 0.22598 94.3289C5.87028 90.0363 10.4795 85.1556 14.0688 79.9109C26.8392 61.2502 26.8392 37.7676 14.0688 19.107C10.4795 13.8622 5.87028 8.98161 0.225983 4.68896C0.0500743 4.55518 0.00836199 4.30701 0.132412 4.1241L2.80223 0.187655C2.92628 0.00475226 3.17205 -0.0485828 3.36076 0.0664506L75.7186 44.1755C79.7121 46.6098 79.7121 52.408 75.7186 54.8424L3.36075 98.9514ZM1.57875 96.7864L1.59776 96.7748C7.61243 92.2521 12.5343 87.074 16.3634 81.4787C29.7807 61.8729 29.7807 37.1449 16.3634 17.5391C12.5344 11.9439 7.61261 6.76597 1.5981 2.24326L1.57876 2.23146C5.47015 5.15599 8.9044 8.35474 11.8815 11.7633C13.5113 13.6292 15.004 15.558 16.3598 17.5391C29.7771 37.1449 29.7771 61.8729 16.3598 81.4788C15.004 83.4599 13.5113 85.3887 11.8815 87.2546C8.9044 90.6631 5.47015 93.8619 1.57875 96.7864Z" fill="url(#paint0_linear_2082_11030)"/>
<defs>
<linearGradient id="paint0_linear_2082_11030" x1="87.8938" y1="50.3859" x2="-28.8647" y2="50.3859" gradientUnits="userSpaceOnUse">
<stop stop-color="#3568DD"/>
<stop offset="1" stop-color="#3568DD" stop-opacity="0.6"/>
</linearGradient>
</defs>
</svg>
