<svg width="16" height="16" viewBox="0 0 16 16" fill="none" xmlns="http://www.w3.org/2000/svg">
<path d="M8.00033 2.66602C6.15766 2.66602 4.66699 4.15668 4.66699 5.99935C4.66699 6.13196 4.71967 6.25913 4.81344 6.3529C4.90721 6.44667 5.03438 6.49935 5.16699 6.49935C5.2996 6.49935 5.42678 6.44667 5.52055 6.3529C5.61431 6.25913 5.66699 6.13196 5.66699 5.99935C5.66699 4.70868 6.70966 3.66602 8.00033 3.66602C9.29099 3.66602 10.3337 4.70868 10.3337 5.99935C10.3337 6.56735 10.1857 6.94602 9.98099 7.23935C9.76499 7.54802 9.46966 7.78802 9.11299 8.06068L9.02099 8.13068C8.34766 8.64268 7.50033 9.28668 7.50033 10.666V10.8327C7.50033 10.9653 7.553 11.0925 7.64677 11.1862C7.74054 11.28 7.86772 11.3327 8.00033 11.3327C8.13293 11.3327 8.26011 11.28 8.35388 11.1862C8.44765 11.0925 8.50033 10.9653 8.50033 10.8327V10.666C8.50033 9.78802 8.97633 9.42402 9.69033 8.87802L9.72099 8.85468C10.0723 8.58602 10.4857 8.26335 10.801 7.81202C11.1277 7.34468 11.3337 6.76535 11.3337 5.99935C11.3337 4.15668 9.84299 2.66602 8.00033 2.66602ZM8.00033 13.9993C8.17714 13.9993 8.34671 13.9291 8.47173 13.8041C8.59675 13.6791 8.66699 13.5095 8.66699 13.3327C8.66699 13.1559 8.59675 12.9863 8.47173 12.8613C8.34671 12.7363 8.17714 12.666 8.00033 12.666C7.82351 12.666 7.65395 12.7363 7.52892 12.8613C7.4039 12.9863 7.33366 13.1559 7.33366 13.3327C7.33366 13.5095 7.4039 13.6791 7.52892 13.8041C7.65395 13.9291 7.82351 13.9993 8.00033 13.9993Z" fill="#A2B2D8"/>
</svg>
