<svg width="24" height="24" viewBox="0 0 24 24" fill="none" xmlns="http://www.w3.org/2000/svg">
<g clip-path="url(#clip0_906_339)">
<g clip-path="url(#clip1_906_339)">
<path d="M22 11.4843C22 11.3191 21.9611 11.1697 21.9299 11.0203L21.9144 10.9653C21.8054 10.4857 21.5796 10.0375 21.276 9.66003C20.9802 9.29833 20.6142 9.00739 20.1939 8.81082C19.7735 8.61424 19.3063 8.51988 18.8626 8.52775C18.3877 8.54347 17.905 8.67714 17.4768 8.92876C17.4301 8.95235 17.4223 8.96022 17.3756 8.92876C16.2857 8.31544 15.0712 7.92229 13.7478 7.74144C13.4753 7.70212 13.195 7.67853 12.9148 7.64708L12.7591 7.63135L13.6933 4.91859L15.5851 5.38251C15.5851 5.4061 15.5851 5.43755 15.5928 5.46114C15.6006 5.62627 15.6162 5.78353 15.6396 5.94079C15.7563 6.56984 16.1222 7.11239 16.6594 7.47409C17.2044 7.84366 17.8583 7.97733 18.5045 7.85152C19.1273 7.72571 19.6878 7.34042 20.0459 6.79787C20.4041 6.25531 20.5286 5.6184 20.404 5.00508C20.1939 3.95143 19.5399 3.2752 18.52 3.0629C17.5391 2.85846 16.6905 3.18871 16.0288 4.05365C15.5851 3.9357 15.1335 3.83348 14.682 3.7234L12.8135 3.2752L12.4165 4.39176C12.0506 5.45328 11.6847 6.51479 11.3188 7.58418C11.3032 7.63135 11.2877 7.64708 11.2487 7.64708C11.0074 7.65494 10.7738 7.6864 10.5481 7.70998C9.10783 7.89084 7.86999 8.29185 6.75672 8.9209C6.64773 8.98381 6.6088 8.98381 6.50759 8.9209C5.33204 8.22895 3.75944 8.48843 2.8408 9.52636C2.2102 10.2498 1.91437 11.1462 2.01557 12.074C2.11678 12.994 2.60724 13.8117 3.38576 14.37C3.4169 14.3936 3.44025 14.4329 3.44804 14.4487C3.58038 15.2586 3.89957 16.0134 4.40561 16.6975C5.16855 17.7276 6.21176 18.5139 7.58194 19.1115C8.81978 19.6462 10.1744 19.945 11.6302 19.9921C11.7781 20 11.9183 20 12.0662 20C13.2495 20 14.3861 19.8349 15.4527 19.5046C17.0954 18.9935 18.3721 18.2151 19.3531 17.1142C20.0459 16.3358 20.4819 15.4551 20.6376 14.488C20.6532 14.37 20.6921 14.315 20.7466 14.2678C20.84 14.2206 20.9179 14.142 20.9879 14.0791L21.0346 14.0398C21.2293 13.8589 21.3928 13.6545 21.5251 13.4265C21.6419 13.222 21.7197 13.0097 21.7976 12.7895C21.8754 12.5772 21.9611 12.3335 21.9922 12.074C22 12.019 22 11.9639 22 11.9167V11.4843ZM20.4741 12.42C20.1705 11.5 19.6255 10.6822 18.8003 9.93524C19.2596 9.87233 19.7968 10.0768 20.1471 10.4778C20.6298 11.0439 20.7466 11.7988 20.4741 12.42ZM5.28533 9.95883C4.85715 10.352 4.50681 10.753 4.24212 11.1619C3.94629 11.6179 3.7283 12.074 3.59595 12.5536C3.35462 12.0976 3.26898 11.3663 3.67381 10.7137C3.98521 10.2183 4.50681 9.92738 5.04399 9.92738C5.12184 9.93524 5.19969 9.9431 5.28533 9.95883ZM18.6835 15.7539C18.0763 16.611 17.2277 17.2794 16.0911 17.7826C14.8766 18.3252 13.5454 18.5925 12.0195 18.6004C10.2912 18.5846 8.81199 18.2308 7.4963 17.531C6.35968 16.9255 5.62009 16.2178 5.16077 15.3057C4.66252 14.315 4.65473 13.3085 5.15298 12.3099C5.60452 11.4056 6.37525 10.6744 7.48852 10.0768C8.71078 9.42414 10.0576 9.07816 11.6146 9.01526C11.7781 9.00739 11.9338 9.00739 12.0895 9.00739C13.5142 9.00739 14.7988 9.26688 16.0132 9.78584C17.1888 10.2891 18.0607 10.9653 18.6913 11.8538C19.5165 13.0254 19.5165 14.5902 18.6835 15.7539ZM16.9786 5.45328C16.9786 4.87927 17.4457 4.40749 18.014 4.39962C18.0218 4.39962 18.0218 4.39962 18.0296 4.39962C18.2943 4.39962 18.5512 4.50971 18.7458 4.70628C18.9482 4.91072 19.0572 5.17807 19.0572 5.46114C19.0572 6.03515 18.5901 6.50693 18.0218 6.51479H18.014C17.7415 6.51479 17.4846 6.40471 17.2822 6.20813C17.0876 5.99583 16.9786 5.73635 16.9786 5.45328Z" fill="#A2B2D8"/>
<path d="M14.4873 15.5809C14.4095 15.6203 14.3394 15.6674 14.2615 15.7067C14.1993 15.7382 14.1448 15.7775 14.0825 15.809C12.4943 16.6818 11.0074 16.6267 9.52818 15.6517C9.16228 15.4079 8.74188 15.4551 8.51611 15.7697C8.40712 15.919 8.36041 16.1078 8.39155 16.2808C8.42269 16.4773 8.54725 16.666 8.7341 16.7919C9.64496 17.4209 10.7037 17.7747 11.7781 17.8062H11.7859C13.0003 17.8062 14.3005 17.4052 15.188 16.7604C15.4916 16.5402 15.585 16.1235 15.3982 15.8168C15.2191 15.5023 14.8221 15.4001 14.4873 15.5809Z" fill="#A2B2D8"/>
<path d="M8.99884 14.3307C9.74622 14.3307 10.3535 13.7095 10.3612 12.9547C10.3612 12.1998 9.754 11.5786 9.00663 11.5786H8.99884C8.64073 11.5786 8.2904 11.728 8.0257 11.9875C7.76879 12.2548 7.62866 12.6008 7.62866 12.9625C7.64423 13.7095 8.25147 14.3307 8.99884 14.3307Z" fill="#A2B2D8"/>
<path d="M14.9078 11.5708C14.1604 11.5708 13.5532 12.192 13.5454 12.9468C13.5454 13.7017 14.1527 14.3229 14.9 14.3307C14.9078 14.3307 14.9078 14.3307 14.9156 14.3307C15.2659 14.3307 15.6163 14.1813 15.8732 13.9219C16.1301 13.6624 16.278 13.3007 16.278 12.9468C16.2624 12.1841 15.6474 11.5708 14.9078 11.5708Z" fill="#A2B2D8"/>
</g>
</g>
<defs>
<clipPath id="clip0_906_339">
<rect width="24" height="24" fill="white"/>
</clipPath>
<clipPath id="clip1_906_339">
<rect width="20" height="17" fill="white" transform="translate(2 3)"/>
</clipPath>
</defs>
</svg>
