<svg width="24" height="24" viewBox="0 0 24 24" fill="none" xmlns="http://www.w3.org/2000/svg">
<path fill-rule="evenodd" clip-rule="evenodd" d="M21.0678 0C22.6861 0 24 1.31391 24 2.93222V21.0678C24 22.6861 22.6861 24 21.0678 24H2.93222C1.31391 24 0 22.6861 0 21.0678V2.93222C0 1.31391 1.31386 0 2.93222 0H21.0678V0ZM20.9062 12.4518C20.9062 11.3753 20.0336 10.5027 18.9572 10.5027C18.4317 10.5027 17.9559 10.7116 17.6053 11.0496C16.2729 10.0883 14.4372 9.4672 12.3926 9.39591L13.2804 5.21836L16.1813 5.83509C16.2167 6.57263 16.8207 7.16119 17.5669 7.16119C18.336 7.16119 18.9593 6.5378 18.9593 5.76895C18.9593 5.00006 18.336 4.37667 17.5669 4.37667C17.02 4.37667 16.5517 4.69505 16.324 5.15377L13.0847 4.46517C12.9946 4.44558 12.9 4.4632 12.8229 4.51373C12.7452 4.56403 12.6911 4.64316 12.6718 4.73339L11.6803 9.39455C9.60567 9.45211 7.74061 10.074 6.39103 11.046C6.04097 10.7102 5.56655 10.5027 5.04305 10.5027C3.96656 10.5027 3.09375 11.3753 3.09375 12.4518C3.09375 13.2438 3.56695 13.9241 4.24538 14.2292C4.21542 14.423 4.19897 14.6196 4.19897 14.8187C4.19897 17.8176 7.6897 20.2485 11.9957 20.2485C16.3017 20.2485 19.7926 17.8176 19.7926 14.8187C19.7926 14.621 19.7763 14.4255 19.7468 14.2331C20.4295 13.9298 20.9062 13.2471 20.9062 12.4518ZM15.3059 17.5233C14.3558 18.4721 12.5349 18.546 11.9996 18.546C11.4639 18.546 9.64289 18.4721 8.69391 17.5231C8.55295 17.3821 8.55295 17.1537 8.69391 17.0127C8.83467 16.8721 9.06337 16.872 9.20414 17.0127C9.80306 17.6118 11.0843 17.8245 11.9996 17.8245C12.9147 17.8245 14.1962 17.6118 14.796 17.0125C14.9374 16.872 15.1657 16.8721 15.3063 17.0129C15.4473 17.154 15.447 17.3824 15.3059 17.5233ZM15.0607 15.2367C14.2933 15.2367 13.6685 14.6122 13.6685 13.8446C13.6685 13.0768 14.2933 12.4518 15.0607 12.4518C15.8285 12.4518 16.4532 13.0768 16.4532 13.8446C16.4532 14.6122 15.8285 15.2367 15.0607 15.2367ZM7.54266 13.8444C7.54266 13.0766 8.16741 12.4518 8.9355 12.4518C9.7028 12.4518 10.3272 13.0766 10.3272 13.8444C10.3272 14.6119 9.7028 15.2363 8.9355 15.2363C8.16741 15.2363 7.54266 14.6119 7.54266 13.8444Z" fill="#1D1D1D"/>
</svg>
