<svg width="142" height="18" viewBox="0 0 142 18" fill="none" xmlns="http://www.w3.org/2000/svg">
<path fill-rule="evenodd" clip-rule="evenodd" d="M135.343 1.9296L141.707 8.29356C142.098 8.68409 142.098 9.31725 141.707 9.70778L135.343 16.0717C134.953 16.4623 134.319 16.4623 133.929 16.0717C133.538 15.6812 133.538 15.048 133.929 14.6575L138.586 10.0007L1 10.0007C0.447716 10.0007 4.84442e-07 9.55296 4.50645e-07 9.00068C4.16847e-07 8.4484 0.447716 8.00068 1 8.00068L138.586 8.00067L133.929 3.34382C133.538 2.95329 133.538 2.32013 133.929 1.9296C134.319 1.53908 134.953 1.53908 135.343 1.9296Z" fill="#A2B2D8"/>
<path d="M36 9C36 13.9706 31.9706 18 27 18C22.0294 18 18 13.9706 18 9C18 4.02944 22.0294 0 27 0C31.9706 0 36 4.02944 36 9Z" fill="#A2B2D8"/>
<path d="M77 9C77 13.9706 72.9706 18 68 18C63.0294 18 59 13.9706 59 9C59 4.02944 63.0294 0 68 0C72.9706 0 77 4.02944 77 9Z" fill="white"/>
<path fill-rule="evenodd" clip-rule="evenodd" d="M68 16C71.866 16 75 12.866 75 9C75 5.13401 71.866 2 68 2C64.134 2 61 5.13401 61 9C61 12.866 64.134 16 68 16ZM68 18C72.9706 18 77 13.9706 77 9C77 4.02944 72.9706 0 68 0C63.0294 0 59 4.02944 59 9C59 13.9706 63.0294 18 68 18Z" fill="#A2B2D8"/>
<path d="M118 9C118 13.9706 113.971 18 109 18C104.029 18 100 13.9706 100 9C100 4.02944 104.029 0 109 0C113.971 0 118 4.02944 118 9Z" fill="white"/>
<path fill-rule="evenodd" clip-rule="evenodd" d="M109 16C112.866 16 116 12.866 116 9C116 5.13401 112.866 2 109 2C105.134 2 102 5.13401 102 9C102 12.866 105.134 16 109 16ZM109 18C113.971 18 118 13.9706 118 9C118 4.02944 113.971 0 109 0C104.029 0 100 4.02944 100 9C100 13.9706 104.029 18 109 18Z" fill="#A2B2D8"/>
</svg>
