<svg width="22" height="24" viewBox="0 0 22 24" fill="none" xmlns="http://www.w3.org/2000/svg">
<path fill-rule="evenodd" clip-rule="evenodd" d="M11.859 7.96805C10.5491 8.55241 7.93125 9.76188 4.00539 11.5965C3.36789 11.8684 3.03394 12.1344 3.00354 12.3945C2.95216 12.8341 3.4654 13.0072 4.16428 13.2429C4.25935 13.275 4.35785 13.3082 4.45883 13.3434C5.14642 13.5831 6.07136 13.8636 6.55219 13.8747C6.98836 13.8848 7.47517 13.692 8.01262 13.2961C11.6807 10.6403 13.5741 9.29799 13.693 9.26906C13.7769 9.24864 13.8931 9.22297 13.9718 9.29804C14.0506 9.3731 14.0428 9.51527 14.0345 9.55341C13.9837 9.78589 11.969 11.7948 10.9265 12.8344C10.6015 13.1585 10.3709 13.3884 10.3238 13.4409C10.2182 13.5585 10.1106 13.6698 10.0072 13.7767C9.36842 14.4372 8.88939 14.9325 10.0337 15.7414C10.5837 16.1301 11.0237 16.4515 11.4627 16.7721C11.9422 17.1223 12.4204 17.4716 13.0391 17.9067C13.1967 18.0175 13.3473 18.1326 13.4939 18.2447C14.0519 18.6714 14.5531 19.0547 15.1724 18.9936C15.5323 18.958 15.904 18.5951 16.0928 17.5127C16.5389 14.9546 17.4158 9.41192 17.6185 7.12793C17.6363 6.92782 17.6139 6.67172 17.596 6.5593C17.578 6.44688 17.5406 6.2867 17.4043 6.16813C17.243 6.0277 16.9939 5.99809 16.8825 6.00009C16.376 6.00977 15.5988 6.29959 11.859 7.96805Z" stroke="#A2B2D8" stroke-width="1.5" stroke-linejoin="round"/>
</svg>
