<svg width="24" height="24" viewBox="0 0 24 24" fill="none" xmlns="http://www.w3.org/2000/svg">
<path fill-rule="evenodd" clip-rule="evenodd" d="M3 0C1.34315 0 0 1.34315 0 3V21C0 22.6569 1.34315 24 3 24H21C22.6569 24 24 22.6569 24 21V3C24 1.34315 22.6569 0 21 0H3ZM17.5055 17.3242L19.9856 5.79607C20.0105 5.68021 20.003 5.55996 19.9638 5.4479C19.9247 5.33584 19.8553 5.23608 19.763 5.15905C19.6707 5.08202 19.5588 5.03055 19.4391 5.01001C19.3194 4.98948 19.1962 5.00065 19.0824 5.04234L4.33174 10.4525C4.23278 10.4888 4.14778 10.5541 4.0884 10.6393C4.02902 10.7245 3.99817 10.8254 4.00008 10.9284C4.002 11.0313 4.03658 11.1312 4.09908 11.2142C4.16159 11.2973 4.24896 11.3595 4.3492 11.3923L8.11922 12.625L16.8729 7.23071C16.9116 7.20683 16.9581 7.19793 17.0032 7.20577C17.0483 7.21362 17.0887 7.23763 17.1165 7.27308C17.1443 7.30854 17.1575 7.35285 17.1534 7.39728C17.1493 7.44171 17.1282 7.48303 17.0944 7.51309L10.2496 13.6021L9.86985 17.1804L9.91682 17.2306C9.9433 17.2589 9.97531 17.2818 10.011 17.298C10.0466 17.3141 10.0853 17.3232 10.1246 17.3246C10.1639 17.3261 10.2031 17.3199 10.2399 17.3065C10.2767 17.293 10.3104 17.2725 10.339 17.2462L12.5246 15.2387L16.1321 17.8337C16.2498 17.9183 16.3875 17.9728 16.5324 17.9921C16.6774 18.0115 16.825 17.995 16.9618 17.9443C17.0985 17.8936 17.2199 17.8102 17.3149 17.7018C17.4099 17.5935 17.4755 17.4636 17.5055 17.3242Z" fill="#1D1D1D"/>
</svg>
