<svg width="152" height="150" viewBox="0 0 152 150" fill="none" xmlns="http://www.w3.org/2000/svg">
<path d="M133.488 79.1466L121.251 78.4688M133.488 79.1466L136.148 79.2939C142.359 79.638 147.672 74.8821 148.016 68.6715V68.6715C148.36 62.4608 143.605 57.1472 137.394 56.8032L105.027 55.0104C104.307 54.9705 103.603 54.7799 102.961 54.4509V54.4509C100.708 53.2966 99.6271 50.6776 100.409 48.2702L105.106 33.8137L109.883 21.1667C111.724 16.2955 110.309 10.7933 106.348 7.41317L105.806 6.95043C103.255 4.77346 99.8424 3.89411 96.5568 4.56695V4.56695C93.0974 5.27538 90.1966 7.61799 88.7757 10.8508L84.5651 20.4307C82.5295 25.0623 79.3951 29.1276 75.4337 32.2745L71.6579 35.274C67.7734 38.3598 63.0841 40.2645 58.1482 40.7616L56.8742 40.8899C50.1514 41.5669 44.0616 45.1521 40.2075 50.7019V50.7019C37.8334 54.1206 36.4266 58.1171 36.1358 62.2692L31.8308 123.729C31.4575 129.058 33.2573 134.311 36.8201 138.292V138.292C40.3163 142.198 45.2209 144.556 50.4551 144.846L111.807 148.244L112.695 148.293C119.27 148.657 124.896 143.623 125.26 137.048V137.048C125.624 130.473 120.589 124.848 114.014 124.483L108.676 124.188L124.797 125.081C131.277 125.44 136.822 120.477 137.181 113.996L137.243 112.874C137.568 107.013 133.08 101.999 127.219 101.674V101.674M133.488 79.1466V79.1466C139.018 79.4529 143.252 84.1836 142.945 89.713L142.868 91.1036C142.52 97.401 137.132 102.223 130.834 101.874L127.219 101.674M127.219 101.674L114.426 100.966" stroke="#0E0E0E" stroke-width="2" stroke-linecap="round" stroke-linejoin="round"/>
<rect x="8.56036" y="30.6124" width="39.223" height="115.603" rx="17.5" transform="rotate(3.71862 8.56036 30.6124)" fill="white" stroke="#0E0E0E" stroke-width="2" stroke-linejoin="round"/>
</svg>
