<svg width="24" height="24" viewBox="0 0 24 24" fill="none" xmlns="http://www.w3.org/2000/svg">
    <g clip-path="url(#clip0_3372_2163)">
        <path d="M20 7.23109C19.4116 7.49181 18.7795 7.66798 18.115 7.7476C18.7929 7.34172 19.313 6.69766 19.5582 5.93099C18.924 6.30728 18.2214 6.58069 17.4738 6.72726C16.8748 6.09024 16.0222 5.69141 15.078 5.69141C13.2656 5.69141 11.7956 7.16133 11.7956 8.97512C11.7956 9.23162 11.8252 9.48107 11.8802 9.72206C9.15106 9.58465 6.73337 8.27751 5.11407 6.29178C4.8322 6.77799 4.67013 7.34172 4.67013 7.94209C4.67013 9.08082 5.25007 10.0864 6.13019 10.6748C5.59183 10.6571 5.08588 10.5099 4.64335 10.2639V10.3062C4.64335 11.8966 5.77433 13.2235 7.27667 13.5251C7.00044 13.5998 6.71083 13.6393 6.41205 13.6393C6.20065 13.6393 5.99419 13.6195 5.79406 13.5815C6.21193 14.8851 7.42394 15.835 8.86074 15.8603C7.73681 16.7412 6.32115 17.2661 4.78358 17.2661C4.51863 17.2661 4.2572 17.2506 4 17.2203C5.45301 18.1526 7.17801 18.6952 9.03127 18.6952C15.0702 18.6952 18.3715 13.6935 18.3715 9.35564C18.3715 9.2147 18.368 9.07236 18.3617 8.93143C19.0029 8.46776 19.5596 7.89065 19.9986 7.2332L20 7.23109Z" stroke="#1D1D1D" stroke-width="1.5" stroke-linejoin="round"/>
    </g>
    <defs>
        <clipPath id="clip0_3372_2163">
            <rect width="24" height="24" fill="white"/>
        </clipPath>
    </defs>
</svg>
