<svg width="24" height="24" viewBox="0 0 24 24" fill="none" xmlns="http://www.w3.org/2000/svg">
<path fill-rule="evenodd" clip-rule="evenodd" d="M21.0678 0C22.6861 0 24 1.31391 24 2.93222V21.0678C24 22.6861 22.6861 24 21.0678 24H2.93222C1.31391 24 0 22.6861 0 21.0678V2.93222C0 1.31391 1.31386 0 2.93222 0H21.0678V0ZM9.16495 19.9005C15.5371 19.9005 19.0213 14.6204 19.0213 10.0442C19.0213 9.89334 19.0213 9.74245 19.0141 9.59878C19.6894 9.1103 20.2785 8.49966 20.7454 7.80281C20.1276 8.07581 19.4595 8.26261 18.7555 8.34881C19.4739 7.91775 20.0198 7.24247 20.2785 6.43069C19.6104 6.8258 18.8704 7.11319 18.0802 7.2712C17.448 6.59592 16.55 6.17925 15.5515 6.17925C13.6405 6.17925 12.0888 7.731 12.0888 9.64191C12.0888 9.91491 12.1176 10.1807 12.1822 10.4321C9.30145 10.2885 6.75117 8.90916 5.04141 6.81145C4.74684 7.3215 4.57444 7.91775 4.57444 8.54995C4.57444 9.74967 5.18508 10.8129 6.11897 11.4307C5.55145 11.4163 5.01984 11.2583 4.55288 10.9996V11.0428C4.55288 12.7238 5.74542 14.1175 7.33308 14.4407C7.04573 14.5198 6.73683 14.5629 6.4207 14.5629C6.198 14.5629 5.98252 14.5413 5.76698 14.4982C6.20522 15.8775 7.48392 16.8761 8.99972 16.9048C7.81439 17.8316 6.32016 18.3847 4.69659 18.3847C4.41642 18.3847 4.14342 18.3704 3.87042 18.3344C5.38622 19.3258 7.21092 19.9005 9.16495 19.9005Z" fill="#1D1D1D"/>
</svg>
