<svg width="129" height="133" viewBox="0 0 129 133" fill="none" xmlns="http://www.w3.org/2000/svg">
    <path d="M120.14 68.3156C120.271 68.4496 120.401 68.5873 120.528 68.7289C120.441 68.7535 120.353 68.7772 120.265 68.7998L120.14 68.3156ZM120.14 68.3156C120.323 68.2685 120.505 68.217 120.685 68.1611C120.623 68.0949 120.56 68.0298 120.497 67.9657L120.14 68.3156ZM125.425 65.3155C127.824 62.9617 129.092 59.79 128.992 56.3874C128.811 50.0801 123.613 44.919 117.158 44.6351M125.425 65.3155L120.64 68.8558C122.862 71.4025 123.907 74.6652 123.583 78.0403C123.119 82.8762 119.74 86.7759 115.263 88.1954C115.2 88.13 115.137 88.0655 115.074 88.0017L114.719 88.354L114.848 88.8371C114.936 88.8137 115.023 88.7894 115.11 88.7642C115.169 88.8286 115.227 88.8939 115.285 88.96C117.509 91.5045 118.554 94.7673 118.23 98.1423C117.768 102.978 114.386 106.878 109.909 108.297C109.847 108.232 109.784 108.167 109.721 108.104L109.366 108.456L109.495 108.939C109.582 108.916 109.67 108.891 109.757 108.866C109.816 108.931 109.874 108.996 109.931 109.062C112.154 111.609 113.198 114.871 112.875 118.246C112.309 124.162 107.377 128.677 101.411 128.965C101.029 128.984 100.644 128.984 100.252 128.967L41.8286 126.41M125.425 65.3155L125.075 64.9586C125.075 64.9586 125.075 64.9586 125.075 64.9585M125.425 65.3155L125.075 64.9585M117.158 44.6351L83.687 43.17C83.6483 43.2415 83.6096 43.313 83.5707 43.3845L83.1314 43.1457L83.1533 42.6461L83.3954 42.6567C86.2551 37.3241 88.4965 31.9289 90.0691 26.5755C91.728 20.9335 96.1327 5.94592 87.015 1.145C84.701 -0.0732403 82.336 -0.321126 79.9837 0.409818M117.158 44.6351L117.136 45.1346L83.1095 43.6452L82.3097 43.6102L82.6921 42.9068C85.6628 37.4435 87.9796 31.9146 89.5894 26.4346L89.5894 26.4344C90.4206 23.6076 91.9171 18.5081 92.0835 13.5281C92.2505 8.53052 91.0769 3.8489 86.782 1.58742C84.5773 0.426711 82.3491 0.198382 80.1321 0.887297L79.9837 0.409818M117.158 44.6351L117.137 45.1346C123.34 45.4075 128.319 50.3665 128.492 56.4017L128.492 56.4021C128.588 59.6673 127.373 62.7036 125.075 64.9585M79.9837 0.409818C74.5752 2.08993 70.6406 8.6197 68.1501 13.3867C67.327 14.9609 66.5507 16.6008 65.8021 18.1855L65.7981 18.1939C63.0773 23.9388 60.5082 29.3632 55.5551 32.8214C54.8703 33.1794 51.8438 33.6243 50.0296 33.8892M79.9837 0.409818L80.132 0.88731C77.5648 1.68481 75.3058 3.64975 73.3615 6.055C71.422 8.45434 69.8339 11.2436 68.5933 13.6182L68.5932 13.6184C67.7755 15.1822 67.0034 16.8131 66.2542 18.3991L66.254 18.3995L66.2204 18.4705C63.5219 24.1683 60.9034 29.6971 55.8413 33.2313L55.8151 33.2496L55.7868 33.2644C55.5524 33.387 55.1763 33.4936 54.7726 33.5887C54.351 33.688 53.8414 33.7873 53.3029 33.8826C52.2255 34.0732 51.0082 34.2516 50.1022 34.3839M50.0296 33.8892C47.201 34.3044 44.6339 34.9951 44.6339 34.9951M50.0296 33.8892L50.1018 34.3839C50.102 34.3839 50.1021 34.3839 50.1022 34.3839M50.0296 33.8892L50.1022 34.3839M44.6339 34.9951L44.5999 35.0121C42.8276 35.8468 41.3154 37.0518 40.1342 38.5089C40.1716 38.6044 40.2084 38.7002 40.2444 38.7964L39.7762 38.9719L39.3737 38.6753C39.4356 38.5913 39.4984 38.5081 39.5623 38.4256C36.7369 31.5153 30.1346 26.4966 22.3023 26.1539C17.1916 25.9293 12.2892 27.7302 8.50138 31.2218M44.6339 34.9951L44.6837 35.1805L44.6898 35.2031L44.7638 35.478L44.764 35.4779L44.7652 35.4776L44.7703 35.4762L44.7914 35.4706L44.8103 35.4656M44.6339 34.9951L44.8568 35.4427L44.8228 35.4596L44.813 35.4645L44.8129 35.4644C44.812 35.4648 44.8111 35.4652 44.8103 35.4656M8.50138 31.2218C4.63482 34.7875 2.41017 39.6541 2.23365 44.9296M8.50138 31.2218L8.84026 31.5894C8.84029 31.5894 8.84032 31.5893 8.84034 31.5893M8.50138 31.2218L8.84034 31.5893M2.23365 44.9296L0.0111224 111.551C-0.34831 122.35 8.04837 131.518 18.7314 131.984M2.23365 44.9296L2.73337 44.9463L0.510844 111.568C0.160366 122.098 8.34899 131.03 18.7532 131.484M2.23365 44.9296L2.73337 44.9463C2.90545 39.8039 5.07261 35.0639 8.84034 31.5893M18.7314 131.984C19.3269 132.009 19.9203 132.009 20.5094 131.98C24.9715 131.764 29.1868 129.999 32.5323 126.914C33.7175 125.822 34.7428 124.605 35.6065 123.293C35.5618 123.223 35.5181 123.152 35.4755 123.08L35.9054 122.825L36.3306 123.088C36.289 123.155 36.2471 123.222 36.2047 123.289C37.4613 125.086 39.4974 126.304 41.8286 126.41M18.7314 131.984L18.7532 131.484M18.7314 131.984L18.7527 131.484C18.7529 131.484 18.753 131.484 18.7532 131.484M41.8286 126.41L41.8512 125.91M41.8286 126.41L41.8505 125.91L41.8512 125.91M41.8512 125.91L100.274 128.467C100.651 128.484 101.02 128.484 101.387 128.465L101.387 128.465C107.117 128.189 111.836 123.855 112.377 118.199L112.377 118.199C112.687 114.96 111.686 111.833 109.555 109.391L109.555 109.391C109.38 109.19 109.198 108.997 109.011 108.808L108.403 108.196L109.237 107.973C113.792 106.757 117.273 102.905 117.733 98.0947L117.733 98.0946C118.043 94.8556 117.042 91.7294 114.908 89.2891L114.908 89.2886C114.733 89.0882 114.551 88.8948 114.364 88.7063L113.756 88.0937L114.59 87.8709C119.145 86.6548 122.624 82.8028 123.086 77.9925C123.396 74.7536 122.395 71.6272 120.263 69.1846L120.262 69.1834C120.108 69.006 119.947 68.8334 119.783 68.6654L119.177 68.0469L120.016 67.8313C121.899 67.3471 123.633 66.3724 125.075 64.9585M41.8512 125.91C39.5028 125.804 37.4711 124.482 36.3353 122.57L35.9143 121.86L35.4803 122.562C34.5805 124.016 33.4843 125.357 32.1936 126.546L32.1933 126.546C28.9333 129.552 24.829 131.27 20.4852 131.48L20.4842 131.48C19.9121 131.509 19.3344 131.509 18.7532 131.484M8.84034 31.5893C12.5311 28.1873 17.3038 26.4347 22.2803 26.6534L22.2804 26.6534C30.1066 26.9959 36.6798 32.1339 39.308 39.1473L39.6316 40.0109L40.1787 39.2685C41.3569 37.6697 42.931 36.3513 44.8103 35.4656M44.8103 35.4656L44.8756 35.4485C44.9499 35.4292 45.0597 35.401 45.2005 35.3658C45.4822 35.2953 45.8876 35.1969 46.3811 35.0856C47.3688 34.8627 48.7045 34.5891 50.1022 34.3839M18.8711 128.774H18.8735L18.8821 128.774H18.8845C23.1258 128.955 27.1941 127.457 30.3383 124.557C33.5678 121.58 35.4266 117.508 35.5714 113.102C35.5714 113.102 35.5714 113.102 35.5714 113.102L37.7918 46.4845C38.0943 37.4412 31.086 29.7599 22.1562 29.3684C21.6633 29.3466 21.1714 29.3465 20.683 29.3706C16.9766 29.5501 13.4733 31.0192 10.6913 33.5829L10.6913 33.583C7.4616 36.5599 5.60279 40.6294 5.45586 45.0379L3.23546 111.658L3.23546 111.658C2.9352 120.701 9.94114 128.382 18.8711 128.774ZM123.16 63.0261L123.16 63.026C124.914 61.3034 125.838 58.9751 125.766 56.4789C125.632 51.8327 121.778 48.0554 117.016 47.8496C117.016 47.8496 117.016 47.8496 117.016 47.8496L77.705 46.1295L78.8393 44.1885C82.4222 38.0658 85.1575 31.8378 86.9693 25.6763L86.9719 25.6677C87.6833 23.2484 88.9987 18.7758 89.3235 14.4736C89.4861 12.3201 89.4038 10.1737 88.8522 8.33291C88.2978 6.48253 87.2596 4.915 85.5039 3.99075C84.4582 3.43947 83.415 3.17657 82.3583 3.22827L82.3581 3.22827C81.8838 3.25167 81.4128 3.33811 80.9441 3.48303L80.9436 3.48319C78.5004 4.24143 76.3236 6.54681 74.6332 8.86569C72.9275 11.2057 71.6424 13.6664 71.0133 14.8709L71.012 14.8735C70.2258 16.3786 69.4699 17.9739 68.7419 19.5103L68.7191 19.5583L68.7191 19.5585C65.896 25.5209 63.0336 31.5392 57.375 35.4767L57.3749 35.4768C56.9317 35.7854 56.245 36.0416 55.1206 36.2935C54.0038 36.5438 52.5123 36.7786 50.4955 37.0745C49.7339 37.1857 48.7712 37.3268 47.9338 37.4688C47.5153 37.5398 47.1234 37.6118 46.8009 37.6811C46.4938 37.7472 46.2051 37.8197 46.0232 37.8999L46.0231 37.8998L46.0125 37.9047L45.9764 37.9217L45.9755 37.9221C42.7387 39.4471 40.6503 42.6219 40.5313 46.2054L38.1068 118.948L38.1067 118.949C38.0344 121.185 39.7555 123.102 41.9721 123.202L41.9727 123.202L100.394 125.757C105.135 125.965 109.22 122.546 109.661 117.942C109.9 115.455 109.132 113.049 107.494 111.174L107.494 111.174C105.9 109.35 103.706 108.283 101.314 108.177L101.312 108.177L101.303 108.176H101.301L83.2914 107.387L83.4111 104.674L105.749 105.653C110.49 105.861 114.575 102.444 115.017 97.8383C115.255 95.3508 114.487 92.9453 112.85 91.0697L112.473 91.3986L112.85 91.0697C111.255 89.2437 109.058 88.1784 106.668 88.0727L106.667 88.0727L87.7088 87.2429L87.8285 84.53L106.787 85.3598L106.798 85.3603H106.803L111.105 85.5484C115.848 85.7565 119.931 82.3378 120.372 77.7342C120.61 75.2469 119.842 72.8392 118.205 70.9656C116.611 69.1398 114.414 68.0721 112.022 67.9686L92.1262 67.0985L92.2459 64.3856L116.82 65.4612L116.82 65.4612C119.202 65.5647 121.455 64.6993 123.16 63.0261ZM41.9945 122.702C40.0612 122.615 38.5427 120.937 38.6065 118.965L101.292 108.676C103.545 108.776 105.612 109.78 107.118 111.503C108.664 113.274 109.389 115.543 109.164 117.895C108.749 122.219 104.906 125.454 100.416 125.257L41.9945 122.702Z"
          fill="#0E0E0E" stroke="white"/>
</svg>
